<svg width="24" height="24" viewBox="0 0 24 24" fill="none" xmlns="http://www.w3.org/2000/svg">
<path d="M12.0057 22H17.7098C18.6105 22 19.311 21.495 19.7112 20.7879C20.1115 19.9798 20.0115 19.0707 19.5111 18.3636L15.3081 12.404C15.208 12.202 15.208 11.899 15.3081 11.697L19.6112 5.63636C20.1115 4.92929 20.1115 4.0202 19.7112 3.21212C19.311 2.50505 18.6105 2 17.7098 2H12.0057C10.9049 2 9.80416 2.50505 9.20373 3.51515L4.60043 10.0808C3.79986 11.2929 3.79986 12.9091 4.60043 14.0202L9.20373 20.5859C9.80416 21.3939 10.9049 22 12.0057 22ZM17.7098 4.0202C17.91 4.0202 17.91 4.12121 18.01 4.22222C18.01 4.32323 18.1101 4.42424 18.01 4.52525L13.807 10.4848C13.2066 11.3939 13.2066 12.6061 13.807 13.5152L18.01 19.4747C18.01 19.5758 18.01 19.6768 18.01 19.7778C18.01 19.8788 17.91 19.9798 17.7098 19.9798H12.0057C11.5054 19.9798 11.1051 19.7778 10.8049 19.3737L6.20158 12.8081C5.90136 12.303 5.90136 11.697 6.20158 11.1919L10.8049 4.62626C11.1051 4.22222 11.5054 4.0202 12.0057 4.0202H17.7098Z" fill="black"/>
</svg>
