<svg width="30" height="36" viewBox="0 0 30 36" fill="none" xmlns="http://www.w3.org/2000/svg">
<path fill-rule="evenodd" clip-rule="evenodd" d="M3.19083 6.3725C2.62301 6.70033 2.18543 7.23208 2.08325 7.87973C1.80789 9.62498 2.10609 11.4724 3.05832 13.1217C5.26746 16.9481 10.1602 18.2591 13.9865 16.0499C17.8129 13.8408 19.1239 8.94807 16.9147 5.12173C15.9197 3.3983 14.3803 2.18516 12.6391 1.57413C12.1646 1.40762 11.6452 1.49139 11.2097 1.74281V1.74281C10.9764 1.8775 10.8965 2.17582 11.0312 2.40912L12.1909 4.41783C12.4214 4.8171 12.7572 5.14117 13.1089 5.43933C13.5209 5.78869 13.8809 6.2137 14.1665 6.70841C15.4994 9.01696 14.7084 11.9689 12.3998 13.3017C10.0913 14.6346 7.13937 13.8436 5.80652 11.5351C5.39626 10.8245 5.18722 10.0529 5.16173 9.28635C5.14616 8.81804 5.06514 8.34686 4.83086 7.94107L4.05965 6.6053C3.88402 6.3011 3.49504 6.19687 3.19083 6.3725V6.3725Z" fill="#CAA627"/>
<path d="M9.52344 16.9976L16.9929 12.6851L18.6917 15.6275C18.8431 15.8896 18.8078 16.2195 18.6044 16.4437V16.4437C16.8473 18.3804 14.5286 19.7191 11.9728 20.2725V20.2725C11.6769 20.3365 11.3736 20.2022 11.2223 19.94L9.52344 16.9976Z" fill="#CAA627"/>
<path d="M12.1816 19.9731L18.2418 16.4743L25.1356 28.4147C25.2809 28.6664 25.3269 28.9634 25.2645 29.2473V29.2473C25.1522 29.7581 24.8461 30.2054 24.4107 30.4951L22.9511 31.466L21.5693 32.1396C21.1071 32.3649 20.59 32.4533 20.0791 32.3945V32.3945C19.5898 32.3381 19.1561 32.0533 18.9099 31.6268L12.1816 19.9731Z" fill="#CAA627"/>
<path d="M17.0965 19.3436C16.8495 18.227 18.3671 17.6372 18.9389 18.6276L23.996 27.3866C24.2215 27.7773 24.1576 28.2705 23.84 28.5908L21.2896 31.1625C20.7323 31.7244 19.7741 31.447 19.6031 30.6743L17.0965 19.3436Z" fill="#FFD42A"/>
<path d="M15.2951 14.2571C14.9707 13.1233 16.5329 12.4608 17.1225 13.4821L18.1881 15.3277C18.4016 15.6974 18.3568 16.1618 18.0767 16.484L17.6721 16.9491C17.1514 17.5478 16.1743 17.3308 15.9561 16.5679L15.2951 14.2571Z" fill="#FFD42A"/>
</svg>
