<svg width="330" height="343" viewBox="0 0 330 343" fill="none" xmlns="http://www.w3.org/2000/svg">
<path d="M87.0196 45.2889C83.1032 50.3075 130.508 92.0562 193.761 140.229C200.83 145.612 207.774 150.834 214.505 155.84C281.038 141.473 328.818 127.395 327.596 121.872C326.373 116.342 278.455 123.45 218.768 136.997C212.528 131.883 206.082 126.658 199.489 121.382C141.726 75.1598 90.9481 40.255 87.0196 45.2889Z" fill="white"/>
<path d="M87.0196 45.2887C85.2452 44.3988 73.5541 62.192 56.2747 95.03C40.4317 125.138 14.3321 178.376 0.657227 237.471C34.4886 265.705 72.0123 295.525 113.155 326.518C120.344 331.933 127.49 337.269 134.582 342.52C179.684 337.217 219.903 330.753 257.223 314.152C284.629 262.514 303.17 209.578 313.291 177.904C324.178 143.834 328.757 123.765 326.86 123.099C324.699 122.342 316.39 141.101 303.127 173.209C291.421 201.544 270.31 254.55 244.786 300.727C213.657 314.664 179.897 318.997 139.616 323.415C133.145 318.809 126.624 314.146 120.064 309.428C82.2438 282.232 48.3967 257.017 16.2705 232.096C28.4211 180.452 53.4458 127.202 66.332 98.5615C81.0067 65.9463 89.1756 46.3699 87.0196 45.2887Z" fill="white"/>
<path d="M218.103 142.383C213.907 140.11 186.586 179.458 163.638 234.125C161.694 238.758 159.848 243.337 158.102 247.854C139.313 296.489 132.254 335.907 135.942 337.137C141.017 338.828 155.41 301.664 174.929 254.587C176.748 250.195 178.599 245.755 180.509 241.205C202.852 187.966 222.76 144.904 218.103 142.383Z" fill="white"/>
<path d="M209.375 73.472C239.014 86.3542 269.906 85.7919 278.373 72.2161C286.84 58.6402 269.676 37.1918 240.037 24.3096C210.398 11.4275 179.507 11.9898 171.04 25.5656C162.572 39.1414 179.736 60.5899 209.375 73.472Z" fill="white" stroke="black" stroke-width="7.75017" stroke-linejoin="round"/>
<path d="M281.151 56.8288C280.416 57.2948 282.116 61.1522 281.304 68.2839C280.821 72.0826 279.771 76.1461 277.823 81.2457C275.317 87.5684 271.635 96.209 265.613 101.582C265.371 101.882 264.542 102.256 263.319 103.068C257.393 106.991 249.526 108.279 240.572 108.277C230.934 108.151 220.941 106.046 210.741 102.405L210.681 102.386C186.764 94.3042 169.768 81.1615 161.044 65.16C167.702 39.3017 172.281 21.712 170.519 21.1208C168.794 20.5417 161.377 37.4904 152.916 65.9476C161.869 85.2179 180.645 102.606 206.99 112.628L207.055 112.652C218.2 116.687 229.501 118.84 240.567 118.723C250.842 118.728 260.683 116.314 268.591 110.772C269.364 110.218 270.582 109.434 272.021 108.076C279.429 100.192 282.685 90.3701 284.424 83.3464C285.923 77.6276 286.405 72.6972 286.15 68.4174C285.729 59.5343 281.678 56.4951 281.151 56.8288Z" fill="white"/>
<path d="M284.098 66.5606C283.091 66.5796 282.677 70.0431 280.608 74.1388C280.326 74.5069 279.456 75.6199 279.067 78.0378C279.377 81.0378 280.607 83.087 281.522 83.6486C283.804 86.654 285.948 89.0489 288.769 92.3531C293.583 97.9679 299.577 104.323 306.541 110.547C308.726 112.501 310.919 114.539 313.094 116.665C315.196 118.721 317.2 120.779 319.113 122.846C319.027 122.3 318.9 122.762 319.226 123.785C319.403 125.242 319.203 127.009 318.963 128.905C318.248 134.144 316.664 139.885 315.469 144.48C313.722 151.159 312.511 155.578 311.704 160.231C311.288 162.62 311.088 164.442 311.158 166.048C311.192 166.857 311.289 167.529 311.489 168.084C311.728 169.093 312.418 169.272 312.652 169.099C312.558 169.169 313.412 168.325 313.467 168.165C313.609 167.942 314.059 167.238 314.325 166.752C314.724 166.042 316.103 163.537 316.905 161.963C318.562 158.741 321.394 152.936 323.729 147.255C325.609 142.719 327.808 136.961 329.108 130.674C329.582 128.491 329.942 125.932 329.826 123.066C329.943 121.117 329.238 118.465 327.116 115.635C325.103 113.346 322.966 111.094 320.706 108.883C318.368 106.596 315.99 104.444 313.604 102.424C306.89 96.7536 300.497 90.893 295.241 86.0917C292.115 83.2214 289.259 80.8589 286.85 78.7343C285.668 76.917 285.385 77.953 285.495 78.1558C285.138 78.2508 285.673 77.2204 285.914 75.6601C286.787 69.5152 284.687 66.5491 284.098 66.5606Z" fill="white"/>
<path d="M87.0197 45.2882C87.2116 46.1681 100.217 46.5141 119.886 45.1424C131.423 44.3579 146.416 42.7678 161.451 38.8433C163.224 38.4196 164.945 37.4834 166.433 36.0287C166.976 35.4979 167.486 34.9001 167.955 34.2365C169.237 32.0433 169.794 30.2471 170.164 29.1641C171.585 25.0674 175.087 21.5942 178.832 18.8282C181.672 16.5813 186.108 15.8094 190.268 15.2863C195.82 14.7101 201.401 15.0811 206.111 15.6022C212.145 16.2917 216.502 17.1698 220.346 18.1216C222.633 18.6979 223.686 18.9812 225.156 19.4687C226.476 20.0735 228.195 20.3033 228.106 20.3367C228.568 20.1619 228.598 18.6433 226.674 17.0443C225.558 15.9726 224.07 14.9292 222.046 13.8273C218.415 11.8384 213.615 9.91808 207.416 8.40014C202.44 7.16568 196.352 6.16045 189.719 6.33031C184.81 6.36356 178.846 7.27098 173.308 10.7463C168.269 13.9829 163.415 18.8287 160.657 25.4631C159.938 27.1748 159.669 28.3779 159.319 28.7557C159.371 28.7462 159.388 28.7461 159.377 28.7541C159.343 28.7731 159.106 28.8462 158.835 28.964C144.965 32.6902 129.944 35.036 118.927 36.8441C99.3852 40.0291 86.4842 42.8341 87.0197 45.2882Z" fill="white"/>
<path d="M87.7006 51.6436L71.3585 88.9534C62.3706 109.474 50.2849 137.71 44.5023 151.698C33.637 177.981 18.385 223.33 18.385 229.356C18.385 232.374 50.3549 257.166 121.426 309.266L135.106 319.295L141.42 296.197C154.924 246.804 177.581 195.905 203.592 156.533L206.946 151.457L182.876 133.018C152.271 109.572 117.03 80.0691 100.535 64.0834L87.7006 51.6436ZM93.2461 106.811C93.2914 106.811 93.3327 106.823 93.3692 106.845C98.5834 110.067 93.1928 130.498 76.3324 171.427C66.9893 194.108 58.0619 214.653 56.4946 217.083C46.1053 233.193 49.073 200.302 60.825 169.083C68.4928 148.714 90.3795 106.767 93.2461 106.811Z" fill="#FFCC00" stroke="#FFCC00" stroke-width="5.4685" stroke-linejoin="round"/>
<path d="M149.858 317.247C168.474 270.6 217.231 157.346 219.112 156.383C220.507 155.668 236.673 151.496 255.035 147.112C273.398 142.728 294.829 137.027 302.66 134.443C316.494 129.879 316.898 129.855 316.898 133.583C316.898 141.127 272.699 244.326 254.461 279.365L243.252 300.901L226.559 306.479C212.167 311.287 187.33 316.263 156.392 320.535C148.388 321.64 148.152 321.521 149.858 317.247Z" fill="#FFCC00" stroke="#FFCC00" stroke-width="5.4685" stroke-linejoin="round"/>
<path d="M242.255 77.3547C215.051 74.1984 184.337 56.9187 176.504 40.3625C170.316 27.2846 178.338 20.1252 199.13 20.1672C216.821 20.2024 236.401 26.4484 253.289 37.4415C267.35 46.5949 276.344 58.7244 274.875 66.5534C273.263 75.146 260.278 79.4456 242.255 77.3547Z" fill="#FFCC00" stroke="#FFCC00" stroke-width="1.93341" stroke-linejoin="round"/>
<path d="M230.627 107.201C221.051 105.795 207.39 101.434 196.972 96.4576C183.382 89.9664 170.615 79.5378 164.275 69.7488L161.36 65.2482L163.847 55.3276L166.335 45.4072L169.282 49.8C172.976 55.3054 181.254 63.0845 188.622 67.9736C216.362 86.3822 254.967 92.9972 273.704 82.5526C275.385 81.6156 276.911 81.0002 277.096 81.1851C278.113 82.2013 271.536 94.5429 267.589 99.026C261.208 106.275 246.488 109.531 230.627 107.201Z" fill="#FFCC00" stroke="#FFCC00" stroke-width="1.93341" stroke-linejoin="round"/>
<path d="M204.68 125.208C160.785 89.7869 119.662 60.0244 99.1452 48.8278L94.2849 46.1753L102.305 46.1627C117.459 46.1439 141.615 43.6202 155.04 40.6522C158.286 39.9346 160.987 39.3947 161.042 39.4525C161.097 39.5103 159.313 45.0249 157.079 51.7072C154.844 58.3895 153.002 64.5835 152.986 65.4714C152.947 67.6027 157.55 75.4014 162.569 81.7079C176.087 98.6953 198.099 111.84 221.779 117.067C232.133 119.353 247.45 119.364 255.347 117.093C268.919 113.189 276.876 105.748 281.887 92.2771L283.769 87.2145L287.201 91.1566C289.089 93.3247 296.28 100.644 303.183 107.422C310.085 114.199 315.272 119.745 314.71 119.745C314.148 119.745 309.628 120.217 304.666 120.793C287.641 122.771 259.789 127.729 234.325 133.314C226.569 135.015 219.849 136.407 219.392 136.407C218.935 136.407 212.314 131.366 204.68 125.205V125.208Z" fill="#FFCC00" stroke="#FFCC00" stroke-width="1.93341" stroke-linejoin="round"/>
<path d="M153.967 316.313C164.577 289.317 210.77 181.503 219.522 163.308L221.526 159.142L254.845 150.762C289.489 142.048 294.953 140.587 305.76 137.148C309.327 136.013 312.387 135.225 312.559 135.398C313.681 136.52 293.522 185.872 274.785 227.874C265.505 248.675 256.709 267.151 248.343 283.415L240.844 297.995L231.87 301.002C215.396 306.523 201.668 309.7 176.029 313.927C155.981 317.232 153.501 317.5 153.967 316.313Z" fill="#FFCC00" stroke="#FFCC00" stroke-width="1.93341" stroke-linejoin="round"/>
<path d="M92.4407 106.517C89.9413 106.179 88.4709 114.277 83.0508 125.072C80.8701 129.496 77.8124 134.461 74.558 140.451C71.1866 146.643 67.9561 153.443 64.9452 160.821C51.9128 192.754 48.7023 220.326 51.6913 221.186C55.6851 222.336 64.6951 196.408 77.1699 165.806C80.1107 158.592 82.8355 152.176 85.609 145.902C88.4151 139.572 90.7145 134.45 92.3676 128.572C96.0673 115.151 93.8455 106.707 92.4407 106.517Z" fill="black"/>
<path d="M87.0199 45.2889C83.1034 50.3075 130.508 92.0562 193.762 140.229C200.83 145.612 207.774 150.834 214.506 155.84C281.038 141.473 328.819 127.395 327.597 121.872C326.373 116.342 278.455 123.45 218.768 136.997C212.528 131.883 206.082 126.658 199.49 121.382C141.727 75.1598 90.9483 40.255 87.0199 45.2889Z" fill="black"/>
<path d="M87.0198 45.2887C85.2454 44.3988 73.5544 62.192 56.2749 95.03C40.4319 125.138 14.3324 178.376 0.657471 237.471C34.4888 265.705 72.0126 295.525 113.156 326.518C120.344 331.933 127.49 337.269 134.582 342.52C179.684 337.217 219.903 330.753 257.224 314.152C284.629 262.514 303.17 209.578 313.291 177.904C324.178 143.834 328.757 123.765 326.86 123.099C324.699 122.342 316.39 141.101 303.127 173.209C291.422 201.544 270.31 254.55 244.786 300.727C213.657 314.664 179.897 318.997 139.616 323.415C133.145 318.809 126.625 314.146 120.064 309.428C82.244 282.232 48.3969 257.017 16.2707 232.096C28.4213 180.452 53.446 127.202 66.3323 98.5615C81.007 65.9463 89.1759 46.3699 87.0198 45.2887Z" fill="black"/>
<path d="M218.103 142.383C213.907 140.11 186.586 179.458 163.638 234.125C161.694 238.758 159.849 243.337 158.102 247.854C139.313 296.489 132.254 335.907 135.942 337.137C141.017 338.828 155.41 301.664 174.929 254.587C176.749 250.195 178.599 245.755 180.509 241.205C202.852 187.966 222.76 144.904 218.103 142.383Z" fill="black"/>
<path d="M209.375 73.472C239.015 86.3542 269.906 85.7919 278.373 72.2161C286.84 58.6402 269.677 37.1918 240.037 24.3096C210.398 11.4275 179.507 11.9898 171.04 25.5656C162.573 39.1414 179.736 60.5899 209.375 73.472Z" stroke="black" stroke-width="7.75017" stroke-linejoin="round"/>
<path d="M281.152 56.8288C280.416 57.2948 282.116 61.1522 281.304 68.2839C280.821 72.0826 279.771 76.1461 277.823 81.2457C275.317 87.5684 271.635 96.209 265.613 101.582C265.371 101.882 264.543 102.256 263.319 103.068C257.393 106.991 249.527 108.279 240.572 108.277C230.934 108.151 220.941 106.046 210.741 102.405L210.682 102.386C186.764 94.3042 169.768 81.1615 161.044 65.16C167.703 39.3017 172.281 21.712 170.52 21.1208C168.794 20.5417 161.377 37.4904 152.916 65.9476C161.869 85.2179 180.645 102.606 206.99 112.628L207.055 112.652C218.2 116.687 229.501 118.84 240.567 118.723C250.843 118.728 260.683 116.314 268.591 110.772C269.364 110.218 270.582 109.434 272.022 108.076C279.43 100.192 282.686 90.3701 284.424 83.3464C285.923 77.6276 286.405 72.6972 286.151 68.4174C285.729 59.5343 281.678 56.4951 281.152 56.8288Z" fill="black"/>
<path d="M284.098 66.5606C283.091 66.5796 282.677 70.0431 280.608 74.1388C280.326 74.5069 279.456 75.6199 279.067 78.0378C279.377 81.0378 280.607 83.087 281.522 83.6486C283.805 86.654 285.948 89.0489 288.769 92.3531C293.584 97.9679 299.577 104.323 306.541 110.547C308.726 112.501 310.919 114.539 313.094 116.665C315.197 118.721 317.2 120.779 319.113 122.846C319.027 122.3 318.9 122.762 319.227 123.785C319.403 125.242 319.203 127.009 318.963 128.905C318.249 134.144 316.664 139.885 315.469 144.48C313.723 151.159 312.511 155.578 311.704 160.231C311.288 162.62 311.088 164.442 311.159 166.048C311.192 166.857 311.289 167.529 311.489 168.084C311.728 169.093 312.418 169.272 312.653 169.099C312.558 169.169 313.413 168.325 313.467 168.165C313.609 167.942 314.059 167.238 314.325 166.752C314.725 166.042 316.103 163.537 316.905 161.963C318.562 158.741 321.395 152.936 323.73 147.255C325.609 142.719 327.808 136.961 329.109 130.674C329.582 128.491 329.943 125.932 329.826 123.066C329.943 121.117 329.238 118.465 327.116 115.635C325.103 113.346 322.966 111.094 320.706 108.883C318.368 106.596 315.99 104.444 313.605 102.424C306.89 96.7536 300.498 90.893 295.241 86.0917C292.115 83.2214 289.259 80.8589 286.85 78.7343C285.668 76.917 285.386 77.953 285.496 78.1558C285.138 78.2508 285.673 77.2204 285.915 75.6601C286.787 69.5152 284.687 66.5491 284.098 66.5606Z" fill="black"/>
<path d="M87.02 45.2882C87.2119 46.1681 100.217 46.5141 119.886 45.1424C131.423 44.3579 146.416 42.7678 161.451 38.8433C163.224 38.4196 164.945 37.4834 166.433 36.0287C166.976 35.4979 167.486 34.9001 167.955 34.2365C169.237 32.0433 169.794 30.2471 170.164 29.1641C171.586 25.0674 175.087 21.5942 178.833 18.8282C181.672 16.5813 186.108 15.8094 190.268 15.2863C195.82 14.7101 201.401 15.0811 206.112 15.6022C212.145 16.2917 216.502 17.1698 220.346 18.1216C222.633 18.6979 223.686 18.9812 225.156 19.4687C226.477 20.0735 228.195 20.3033 228.106 20.3367C228.569 20.1619 228.598 18.6433 226.675 17.0443C225.558 15.9726 224.07 14.9292 222.046 13.8273C218.415 11.8384 213.615 9.91808 207.416 8.40014C202.44 7.16568 196.353 6.16045 189.719 6.33031C184.81 6.36356 178.846 7.27098 173.308 10.7463C168.269 13.9829 163.416 18.8287 160.657 25.4631C159.938 27.1748 159.67 28.3779 159.319 28.7557C159.371 28.7462 159.388 28.7461 159.377 28.7541C159.344 28.7731 159.106 28.8462 158.835 28.964C144.966 32.6902 129.944 35.036 118.927 36.8441C99.3854 40.0291 86.4844 42.8341 87.02 45.2882Z" fill="black"/>
</svg>
