<svg width="45" height="45" viewBox="0 0 45 45" fill="none" xmlns="http://www.w3.org/2000/svg">
<path d="M24.375 1.875H20.625V5.625H16.875V9.375H13.125V13.125H3.75V43.125H41.25V13.125H31.875V9.375H28.125V5.625H24.375V1.875ZM28.125 13.125H16.875V9.375H20.625V5.625H24.375V9.375H28.125V13.125ZM7.5 16.875H37.5V39.375H7.5V16.875ZM26.25 28.125V24.375H22.5V28.125H18.75V31.875H15V35.625H18.75V31.875H22.5V28.125H26.25ZM30 31.875V28.125H26.25V31.875H30ZM30 31.875V35.625H33.75V31.875H30ZM11.25 24.375V20.625H15V24.375H11.25Z" fill="#EAEAEA"/>
</svg>
