<svg width="193" height="66" viewBox="0 0 193 66" fill="none" xmlns="http://www.w3.org/2000/svg">
<path d="M54.8737 38.87C53.2334 38.2769 48.6206 37.0474 39.3212 34.7229C33.5857 33.2897 18.9811 29.7394 18.8194 29.7394C18.7996 29.7394 18.9264 29.52 19.1013 29.252C20.0985 27.7232 21.3025 25.0082 21.7335 23.3177C21.7726 23.1627 21.8261 23.0726 21.8687 23.0888C22.0989 23.1771 29.0307 25.4998 31.2054 26.2173C36.0934 27.8302 44.951 30.6702 54.4313 33.6641C56.5574 34.3353 58.3041 34.8912 58.3119 34.8984C58.3203 34.9062 58.1063 35.1911 57.8359 35.5318C57.0749 36.4915 56.148 37.7673 55.7747 38.3688C55.5884 38.6687 55.4159 38.9427 55.3907 38.9776C55.3606 39.0203 55.1947 38.986 54.8737 38.87Z" fill="white" stroke="white" stroke-width="3.14764" stroke-linejoin="round"/>
<path d="M29.9099 23.0271C29.8775 23.0199 29.6779 22.9809 29.4669 22.94C28.3441 22.7231 27.4184 22.4604 26.4921 22.0969C26.1387 21.9581 24.1701 20.9869 23.7422 20.7406C22.8375 20.2189 22.4108 19.8782 21.4304 18.8933L20.6538 18.1127L20.6887 17.9618C20.7175 17.838 21.2885 16.2588 21.3985 15.998C21.4286 15.927 21.4298 15.9277 21.5061 16.0569C21.6492 16.2996 21.8482 16.54 22.1758 16.8663C23.2944 17.9781 25.1812 19.2538 27.2092 20.2688C28.6344 20.9815 29.6749 21.3595 30.4707 21.4539C30.633 21.4731 30.7707 21.4935 30.7761 21.4989C30.7821 21.505 30.7274 21.6197 30.6547 21.7543C30.5813 21.889 30.4521 22.1588 30.3674 22.3535C30.2105 22.7122 30.0253 23.0494 29.9887 23.0434C29.9778 23.0416 29.9424 23.0343 29.9099 23.0271Z" fill="white" stroke="white" stroke-width="1.57382" stroke-linejoin="round"/>
<path d="M30.1899 20.6704C28.4912 20.3032 25.4864 18.6993 23.4319 17.0617C22.7665 16.5317 22.0151 15.7487 22.0151 15.5852C22.0151 15.5342 22.4161 15.5486 22.6944 15.6105C24.1508 15.9326 26.7625 17.2655 28.7293 18.6903C29.7163 19.4054 30.5848 20.2209 30.7982 20.6337L30.8409 20.716L30.6113 20.7142C30.485 20.7124 30.2957 20.6932 30.1899 20.6704Z" fill="white" stroke="white" stroke-width="1.57382" stroke-linejoin="round"/>
<path d="M45.0052 29.8004C36.6153 26.833 28.6918 24.1185 22.423 22.0639L22.1369 21.9702L21.2155 20.9816C19.2517 18.8754 17.6811 17.236 16.3575 15.9115C15.8165 15.3701 15.3904 14.9332 15.4114 14.941C15.5665 14.9981 20.2904 16.8009 20.2952 16.8045C20.2982 16.8069 20.2297 16.9482 20.1425 17.1182C19.9177 17.5563 19.8035 17.861 19.7656 18.1212C19.7248 18.3994 19.7518 18.4781 19.9646 18.7101C20.0464 18.7996 20.3175 19.1181 20.5675 19.418C21.6909 20.7683 22.5601 21.4504 24.1223 22.2076C24.8256 22.5477 25.2698 22.7346 25.8372 22.9281C27.1241 23.3662 28.3618 23.6047 30.0472 23.7388L30.2732 23.7568L30.376 23.6306C30.7697 23.1462 31.1111 22.4089 31.3137 21.6084C31.3347 21.5237 31.36 21.454 31.3696 21.454C31.387 21.454 31.8012 21.615 32.8825 22.0423L33.4944 22.2839L33.3772 22.517C33.1332 23.002 33.0526 23.3896 33.1626 23.5495C33.2949 23.7412 34.1346 24.6924 34.4381 24.9941C35.2436 25.7946 36.4626 26.6178 37.5391 27.089C38.5159 27.5168 39.6646 27.8335 40.6828 27.9567C41.317 28.033 41.2701 28.0457 41.4889 27.7428C41.8639 27.2242 42.2186 26.5301 42.3803 25.9989C42.4452 25.7849 42.4542 25.7735 42.5215 25.8162C42.554 25.8366 42.5504 25.8631 42.5035 25.9562C42.4169 26.1281 42.3196 26.4285 42.3196 26.5235C42.3196 26.6731 42.3953 26.8618 42.5804 27.1725C43.1521 28.1316 43.9888 28.9495 44.9758 29.512C45.2018 29.6412 46.3751 30.2199 46.6877 30.3563C46.7279 30.3743 46.7411 30.3887 46.7171 30.3893C46.6925 30.3899 45.9225 30.1249 45.0052 29.8004Z" fill="white" stroke="white" stroke-width="1.57382" stroke-linejoin="round"/>
<path d="M40.4153 27.2518C39.2793 26.9616 38.4642 26.613 37.2578 25.9027C35.8441 25.0698 35.228 24.5993 34.2205 23.5825L33.8389 23.1979L33.8767 23.0705C33.8972 23.0008 34.0366 22.6252 34.1869 22.2358C34.3372 21.8464 34.4688 21.5032 34.479 21.4732C34.4946 21.4305 34.5301 21.4666 34.6527 21.6505C35.237 22.5254 37.1983 23.9635 39.1591 24.9532C40.2596 25.5091 41.127 25.8132 41.7882 25.8751L41.9896 25.8937L41.8249 26.1443C41.7341 26.2825 41.5947 26.5079 41.5153 26.6461C41.1739 27.238 41.0699 27.3834 40.9918 27.3816C40.9509 27.381 40.6918 27.3221 40.4153 27.2518Z" fill="white" stroke="white" stroke-width="1.57382" stroke-linejoin="round"/>
<path d="M41.383 25.2145C40.3731 24.9951 38.4659 24.0336 36.9866 22.997C36.1283 22.3961 35.3691 21.7272 35.083 21.321L34.9375 21.1143L35.077 21.1052C35.8836 21.0524 38.309 22.2176 40.1507 23.5439C40.9538 24.1226 41.6787 24.7944 41.8746 25.1436L41.9395 25.2595L41.7532 25.2571C41.651 25.2559 41.4839 25.2367 41.383 25.2145Z" fill="white" stroke="white" stroke-width="1.57382" stroke-linejoin="round"/>
<path d="M57.8715 34.3529C57.5962 34.252 49.0223 31.2088 48.2836 30.9492C47.9686 30.8386 47.7174 30.7413 47.7258 30.7329C47.7342 30.7245 47.9073 30.7467 48.1111 30.7828C48.3142 30.8182 48.6701 30.8597 48.9003 30.8741L49.3205 30.9005L49.4485 30.7383C49.5194 30.6487 49.6703 30.4408 49.7839 30.2756L49.9913 29.9751L50.0604 30.1211C50.2161 30.4468 50.7348 30.8987 51.7176 31.5646C52.6402 32.1902 53.9945 32.7899 54.8504 32.9521C55.4341 33.0633 55.4311 33.0639 55.7028 32.6931C55.8332 32.5153 55.9582 32.3746 55.9799 32.3812C56.0208 32.3927 58.1847 34.3944 58.1847 34.4202C58.1847 34.4503 58.0735 34.4262 57.8715 34.3529Z" fill="white" stroke="white" stroke-width="2.22572" stroke-linejoin="round"/>
<path d="M55.4086 30.8722C54.3284 30.4774 52.5053 29.3873 51.4462 28.5039C51.0182 28.147 50.7249 27.8321 50.797 27.808C51.0026 27.7395 52.6195 28.4991 53.6648 29.1553C54.632 29.7623 55.7926 30.6727 55.9333 30.9353C55.9958 31.0525 55.8552 31.0357 55.4086 30.8722Z" fill="white" stroke="white" stroke-width="2.22572" stroke-linejoin="round"/>
<path d="M54.7775 32.4903C54.2251 32.2992 52.4158 31.3713 51.5821 30.8515C50.642 30.265 50.3475 30.0427 50.2363 29.8359L50.1558 29.6857L50.285 29.4009C50.6445 28.6082 50.6384 28.6407 50.4858 28.3126C50.365 28.0536 50.3944 28.0349 50.5675 28.2615C50.8356 28.6124 51.6242 29.2476 52.5499 29.8576C53.7448 30.6454 55.0408 31.2956 55.7375 31.4579L56.0512 31.5306L55.9244 31.7001C55.8547 31.7932 55.6864 32.0336 55.5499 32.2343C55.2644 32.6555 55.2602 32.6567 54.7775 32.4903Z" fill="white" stroke="white" stroke-width="2.22572" stroke-linejoin="round"/>
<path d="M48.6473 30.3278C47.6321 30.067 45.6058 29.1283 44.7451 28.5196C44.2564 28.1741 43.4726 27.3976 43.1408 26.9301C42.8402 26.5065 42.8396 26.4908 43.0993 25.7865C43.2027 25.5065 43.2958 25.2517 43.3067 25.221C43.3193 25.1862 43.3968 25.2583 43.5092 25.4085C44.1446 26.2583 45.9731 27.5497 47.7295 28.3886C48.6004 28.805 49.0951 28.9787 49.8206 29.1229L49.9925 29.1572L49.5622 29.7828C49.3247 30.1271 49.1065 30.4125 49.0771 30.4168C49.047 30.4204 48.8541 30.3807 48.6473 30.3278Z" fill="white" stroke="white" stroke-width="2.22572" stroke-linejoin="round"/>
<path d="M49.312 28.448C47.9259 28.0382 45.961 26.924 44.5466 25.7468C44.2166 25.4722 43.7856 25.004 43.7856 24.9205C43.7856 24.7961 44.4787 24.9529 45.2 25.2408C46.3793 25.7113 48.0149 26.6692 49.0235 27.4805C49.3781 27.7659 50.046 28.4378 50.046 28.5093C50.046 28.5838 49.6625 28.5514 49.312 28.448Z" fill="white" stroke="white" stroke-width="2.22572" stroke-linejoin="round"/>
<path d="M47.2087 30.5878C46.9748 30.5048 46.7813 30.4357 46.7783 30.4351C46.7759 30.4339 46.7783 30.4225 46.7837 30.4093L46.7939 30.3853L46.8642 30.4135C47.1077 30.5121 47.4136 30.6172 47.5573 30.6521C47.6102 30.6653 47.6547 30.6767 47.6559 30.6785C47.6571 30.6797 47.6547 30.6863 47.6498 30.6929C47.6456 30.6995 47.6415 30.7122 47.6415 30.7218C47.6415 30.7314 47.6402 30.7386 47.6378 30.7386C47.6354 30.7386 47.4425 30.6707 47.2087 30.5878Z" fill="white" stroke="white" stroke-width="0.278214" stroke-linejoin="round"/>
<path d="M154.931 34.4723C154.524 33.673 153.339 31.4261 152.296 29.4791C149.629 24.4949 146.561 18.0763 146.689 17.7494C146.709 17.6965 147.417 17.1052 148.261 16.4351C152.97 12.6985 158.581 7.15847 160.959 3.89899L161.173 3.57568L162.921 6.73121C163.897 8.49376 164.896 10.8314 165.31 11.8374C166.137 13.8481 167.773 18.2933 167.877 18.8113C167.982 19.3341 165.44 22.9878 159.264 31.19C157.383 33.6887 155.804 35.7763 155.757 35.8292C155.71 35.8821 155.338 35.2715 154.931 34.4723Z" fill="#B3B3B3" stroke="#B3B3B3" stroke-width="5.4685" stroke-linejoin="round"/>
<path d="M109.163 43.9064C108.657 42.9106 104.555 35.6675 103.266 33.4951L102.918 32.908L111.01 30.2326C115.461 28.761 122.343 26.4882 126.304 25.1818C136.525 21.8093 141.533 19.95 144.805 18.3124C145.176 18.1262 145.526 17.9741 145.582 17.9741C145.638 17.9741 146.018 18.7842 146.425 19.7739C148.224 24.1403 151.46 30.2885 154.331 34.7926L155.235 36.2108L152.338 36.6651C136.345 39.1728 124.674 41.3626 115.739 43.5326C113.422 44.0957 110.321 44.9112 109.913 45.065C109.836 45.0938 109.511 44.5927 109.163 43.9064ZM148.813 32.7999C148.623 32.3095 147.668 30.3793 146.692 28.511C145.716 26.6421 144.694 24.5826 144.421 23.9336C143.582 21.9373 143.495 21.7504 143.41 21.7504C143.365 21.7504 143.358 22.0827 143.396 22.489C143.531 23.9324 144.488 26.4107 145.867 28.8896C146.862 30.6773 148.659 33.6808 148.893 33.9483C149.082 34.1628 149.088 34.1622 149.123 33.9302C149.143 33.7992 149.003 33.2902 148.813 32.7999Z" fill="#B3B3B3" stroke="#B3B3B3" stroke-width="5.4685" stroke-linejoin="round"/>
<path d="M130.441 22.587C132.569 21.5354 133.984 20.3647 134.52 19.2127C134.835 18.5343 134.798 18.1797 134.334 17.455L133.924 16.8132L134.422 16.7189C134.697 16.6672 134.954 16.6227 134.993 16.6209C135.033 16.6185 135.397 17.2537 135.801 18.0325C136.206 18.8113 136.558 19.4699 136.583 19.4964C136.693 19.6076 138.704 19.4916 139.492 19.3281C142.279 18.75 145.32 17.1485 147.399 15.1636C148.873 13.7568 149.366 12.7545 149.042 11.8266C148.969 11.6169 148.929 11.4252 148.954 11.4006C148.978 11.3765 149.495 11.2233 150.104 11.0604C153.66 10.1091 156.092 8.01307 156.866 5.76316C156.989 5.4032 157.237 5.50535 157.723 5.3401C158.039 5.23253 158.528 5.02701 158.81 4.88338C159.091 4.74036 160.174 4.09856 160.203 4.12741C160.328 4.2524 152.126 11.7936 149.264 14.2652C145.894 17.1762 145.832 17.214 141.768 18.8612C138.565 20.1592 129.653 23.2841 129.154 23.2841C129.085 23.2841 129.665 22.9704 130.441 22.587Z" fill="#B3B3B3" stroke="#B3B3B3" stroke-width="5.4685" stroke-linejoin="round"/>
<path d="M103.351 32.226C104.163 31.7044 105.631 30.6581 105.899 30.4111L106.005 30.3138L106.147 30.5481L106.29 30.7825L106.632 30.7561C107.044 30.7248 107.932 30.5061 108.505 30.2945C109.489 29.9328 111.062 29.0602 112.083 28.3103C112.499 28.0044 113.337 27.219 113.457 27.0224C113.516 26.9251 113.52 26.9293 113.8 27.3391L114.084 27.7544L114.571 27.6799C115.319 27.5651 116.201 27.3722 116.926 27.1637C120.146 26.2394 122.969 24.4703 123.566 23.0022L123.658 22.7744L124.061 23.4673L124.465 24.1602L124.932 24.1307C126.052 24.0598 127.355 23.7882 128.516 23.3844C128.935 23.2389 128.92 23.2407 128.946 23.3429C128.966 23.4156 128.83 23.4685 127.605 23.8669C122.069 25.6685 120.881 26.0814 111.573 29.437C106.442 31.2867 103.076 32.4826 103.002 32.482C102.976 32.482 103.133 32.3666 103.351 32.226Z" fill="#B3B3B3" stroke="#B3B3B3" stroke-width="1.93341" stroke-linejoin="round"/>
<path d="M136.803 18.893C136.736 18.783 136.436 18.2548 136.137 17.7193C135.838 17.1839 135.532 16.6401 135.458 16.5103L135.323 16.2741L136.01 16.2699C136.558 16.2669 136.819 16.2344 137.297 16.1082C140.995 15.1335 146.605 12.0465 147.653 10.4107L147.818 10.1523L147.966 10.4859C148.258 11.1457 148.65 12.2316 148.65 12.38C148.65 12.767 148.107 13.532 147.225 14.3878C145.485 16.077 142.973 17.5421 140.256 18.4537C139.163 18.8203 138.309 19.0066 137.49 19.0582L136.924 19.0931L136.803 18.893Z" fill="#B3B3B3" stroke="#B3B3B3" stroke-width="2.73425" stroke-linejoin="round"/>
<path d="M135.529 15.7358C135.404 15.6102 136.052 14.918 136.875 14.299C139.386 12.4097 144.212 10.1808 146.462 9.8731C146.931 9.8088 147.292 9.83224 147.292 9.92718C147.292 10.0161 146.952 10.4368 146.664 10.7048C144.77 12.4637 139.511 15.0995 136.788 15.6541C136.221 15.7701 135.604 15.8098 135.529 15.7358Z" fill="#B3B3B3" stroke="#B3B3B3" stroke-width="2.73425" stroke-linejoin="round"/>
<path d="M148.446 10.6117C148.3 10.3449 148.062 9.96449 147.916 9.76678C147.621 9.36595 147.45 9.28543 146.879 9.28002L146.555 9.27641L147.174 9.05407C149.303 8.28907 152.097 6.8324 153.901 5.54639C154.558 5.07766 155.441 4.2718 155.627 3.97254L155.718 3.82471L155.82 4.06088C155.876 4.19068 156.048 4.63297 156.203 5.04341L156.484 5.78977L156.298 6.13711C156.021 6.65572 155.629 7.13648 154.984 7.74703C153.877 8.79446 152.41 9.62796 149.964 10.5991L148.71 11.0967L148.446 10.6117Z" fill="#B3B3B3" stroke="#B3B3B3" stroke-width="2.73425" stroke-linejoin="round"/>
<path d="M144.792 9.0019C144.744 8.92378 145.026 8.54398 145.359 8.2387C147.148 6.59935 151.701 4.20942 154.169 3.61509C154.656 3.49731 155.26 3.46185 155.26 3.55079C155.26 3.6872 154.789 4.18778 154.262 4.61144C152.221 6.25261 148.252 8.2976 146.004 8.86548C145.422 9.01332 144.84 9.07822 144.792 9.0019Z" fill="#B3B3B3" stroke="#B3B3B3" stroke-width="2.73425" stroke-linejoin="round"/>
<path d="M145.05 9.59152L145.019 9.54044L145.138 9.53383C145.442 9.5164 145.922 9.42206 146.358 9.29466L146.442 9.27002L146.452 9.30247L146.462 9.33552L146.331 9.35415C146.025 9.39802 145.471 9.52542 145.099 9.63719C145.086 9.6408 145.071 9.62698 145.05 9.59152Z" fill="#B3B3B3" stroke="#B3B3B3" stroke-width="0.483352" stroke-linejoin="round"/>
<path d="M159.571 4.60236C159.559 4.57472 159.538 4.54107 159.525 4.52785C159.502 4.50441 159.503 4.50141 159.534 4.48218C159.581 4.45333 160.081 4.17089 160.098 4.16368C160.106 4.16068 160.046 4.22017 159.965 4.29649C159.885 4.37281 159.767 4.48398 159.705 4.54407L159.592 4.65285L159.571 4.60236Z" fill="#B3B3B3" stroke="#B3B3B3" stroke-width="0.683563" stroke-linejoin="round"/>
<path d="M133.551 15.6678C133.32 15.2561 133.093 14.8541 133.048 14.7748C132.996 14.6822 132.973 14.6288 132.984 14.6252C132.994 14.6228 133.055 14.6125 133.12 14.6029C133.595 14.532 134.444 14.2424 135.459 13.8055C136.474 13.368 137.764 12.722 138.808 12.1277C140.186 11.3434 141.175 10.668 141.699 10.1536L141.897 9.95947L141.999 10.1752C142.056 10.2936 142.135 10.4583 142.173 10.5406L142.244 10.6908L142.116 10.7455C141.815 10.8741 141.111 11.204 140.651 11.4324C138.767 12.3674 137.197 13.3301 136.094 14.2279C135.809 14.4599 135.347 14.922 135.223 15.0999C135.109 15.2622 135.04 15.3914 135.008 15.5001C134.994 15.5464 134.967 15.5939 134.944 15.6137C134.908 15.6443 134.906 15.6552 134.908 15.7549C134.91 15.815 134.928 15.928 134.95 16.0091C134.971 16.0896 134.983 16.1606 134.976 16.1666C134.967 16.175 134.003 16.4166 133.979 16.4166C133.975 16.4166 133.783 16.0794 133.551 15.6678Z" fill="#B3B3B3" stroke="#B3B3B3" stroke-width="0.683563" stroke-linejoin="round"/>
<path d="M132.768 14.2813C132.744 14.2428 132.958 14.0096 133.223 13.7867C134.684 12.556 138.369 10.5855 140.579 9.85295C140.813 9.77543 141.076 9.70212 141.265 9.66065C141.418 9.6276 141.715 9.60357 141.715 9.6246C141.715 9.67568 141.458 9.9443 141.216 10.1456C139.506 11.5704 135.005 13.8696 133.186 14.2476C133.001 14.2861 132.782 14.3041 132.768 14.2813Z" fill="#B3B3B3" stroke="#B3B3B3" stroke-width="0.683563" stroke-linejoin="round"/>
<path d="M124.489 23.4355C124.138 22.8466 123.68 22.1177 123.412 21.7175C123.264 21.4981 123.139 21.31 123.135 21.2986C123.13 21.2872 123.176 21.2704 123.238 21.2602C124.12 21.1207 125.457 20.6105 127.342 19.6953C129.179 18.8023 131.052 17.7098 132.149 16.8901C132.527 16.6077 132.926 16.2429 133.016 16.0957L133.08 15.9941L133.397 16.6359C133.572 16.9887 133.837 17.5067 133.987 17.7873L134.26 18.2975L134.227 18.4472C134.189 18.6256 134.036 18.9387 133.847 19.2236C133.673 19.4868 132.91 20.2548 132.543 20.5366C131.989 20.9621 131.279 21.4086 130.315 21.9386C128.897 22.7186 127.412 23.2775 126.01 23.5593C125.57 23.6483 124.874 23.7528 124.727 23.7528C124.696 23.7528 124.608 23.6363 124.489 23.4355Z" fill="#B3B3B3" stroke="#B3B3B3" stroke-width="1.36713" stroke-linejoin="round"/>
<path d="M123.1 20.8665C123.1 20.8154 123.577 20.3857 123.904 20.1429C125.928 18.6382 130.364 16.3967 132.204 15.9484C132.508 15.8745 132.691 15.857 132.691 15.9021C132.691 15.9514 132.261 16.336 131.924 16.5878C129.807 18.1682 125.2 20.477 123.449 20.8334C123.127 20.8995 123.1 20.9019 123.1 20.8665Z" fill="#B3B3B3" stroke="#B3B3B3" stroke-width="1.36713" stroke-linejoin="round"/>
<path d="M123.398 19.3485C123.128 18.911 123.108 18.8695 123.168 18.8611C123.339 18.8371 123.834 18.6869 124.206 18.5462C126.469 17.6893 129.967 15.7627 130.936 14.8397L131.055 14.7261L131.193 14.9839C131.27 15.1257 131.392 15.3486 131.465 15.4802L131.597 15.7182L131.133 15.8889C128.978 16.6821 125.565 18.4711 123.891 19.6838L123.694 19.8268L123.398 19.3485Z" fill="#B3B3B3" stroke="#B3B3B3" stroke-width="1.36713" stroke-linejoin="round"/>
<path d="M123.191 18.4043C124.357 17.3111 129.113 14.8449 130.678 14.5222C130.764 14.5042 130.843 14.4897 130.854 14.4897C130.941 14.4897 130.316 14.9915 129.799 15.3359C127.838 16.6423 124.172 18.4163 123.114 18.5701L122.997 18.5869L123.191 18.4043Z" fill="#B3B3B3" stroke="#B3B3B3" stroke-width="1.36713" stroke-linejoin="round"/>
<path d="M114.954 21.9783C115.901 21.1472 118.871 19.5127 120.871 18.7212C121.333 18.5391 121.819 18.3823 121.915 18.3853C122 18.3871 121.637 18.6924 121.185 18.9976C119.833 19.9111 117.571 21.0979 115.979 21.7301C115.488 21.9248 115.026 22.072 114.914 22.0702C114.858 22.069 114.862 22.0588 114.954 21.9783Z" fill="#B3B3B3" stroke="#B3B3B3" stroke-width="1.36713" stroke-linejoin="round"/>
<path d="M115.064 22.6699L114.865 22.3538L115.047 22.3165C116.442 22.0323 120.939 19.6964 122.045 18.6821L122.17 18.5679L122.678 19.3966L123.186 20.2253L122.98 20.4374C122.867 20.554 122.753 20.6988 122.729 20.7589C122.704 20.819 122.679 20.8635 122.674 20.8574C122.561 20.7252 122.361 20.4019 122.361 20.3509C122.361 20.2703 122.268 20.1616 122.165 20.1225C121.701 19.9458 119.906 20.5696 117.693 21.6753C116.955 22.0443 116.221 22.4379 115.641 22.7756C115.442 22.891 115.276 22.986 115.272 22.986C115.267 22.986 115.174 22.8435 115.064 22.6699Z" fill="#B3B3B3" stroke="#B3B3B3" stroke-width="1.36713" stroke-linejoin="round"/>
<path d="M113.062 25.0559C113.527 24.4033 116.146 22.7724 118.496 21.672C120.075 20.9323 121.481 20.4281 121.889 20.4551L122.023 20.4642L121.772 20.7159C120.482 22.0134 115.504 24.6347 113.479 25.083C113.341 25.1136 113.177 25.1389 113.115 25.1389L113.003 25.14L113.062 25.0559Z" fill="#B3B3B3" stroke="#B3B3B3" stroke-width="1.36713" stroke-linejoin="round"/>
<path d="M114.089 27.1934C114.013 27.0738 113.791 26.7625 113.596 26.5017C113.401 26.2409 113.169 25.911 113.081 25.7679L112.92 25.5083L113.15 25.4885C114.798 25.3467 119.955 22.7645 121.854 21.1305C121.973 21.0289 122.121 20.8805 122.184 20.8006L122.299 20.6558L122.505 21.0464C122.618 21.2615 122.845 21.6762 123.008 21.9682C123.172 22.2603 123.306 22.5295 123.306 22.5667C123.307 22.7807 122.876 23.36 122.385 23.8053C121.242 24.8443 118.843 26.1195 116.769 26.7913C116.015 27.0359 114.507 27.4109 114.28 27.4109C114.246 27.4109 114.177 27.3322 114.089 27.1934Z" fill="#B3B3B3" stroke="#B3B3B3" stroke-width="1.36713" stroke-linejoin="round"/>
<path d="M106.085 29.9197C105.688 29.255 105.521 28.9395 105.55 28.9101C105.561 28.8999 105.754 28.8482 105.98 28.7959C107.355 28.4768 110.385 26.8362 112.114 25.4739L112.586 25.1025L112.662 25.3988C112.747 25.7329 112.914 26.0827 113.157 26.4378C113.322 26.6782 113.322 26.6788 113.211 26.8471C112.994 27.1788 112.038 27.9203 111.028 28.5411C109.437 29.5194 107.733 30.2796 106.713 30.4659L106.44 30.5158L106.085 29.9197Z" fill="#B3B3B3" stroke="#B3B3B3" stroke-width="2.73425" stroke-linejoin="round"/>
<path d="M105.526 28.4335C105.611 28.276 106.326 27.6012 106.751 27.2779C107.373 26.8038 108.807 25.8879 109.652 25.4252C111.158 24.5989 112.625 23.9968 112.984 24.0569C113.11 24.0779 113.071 24.1326 112.592 24.6079C111.995 25.2016 110.972 25.9492 109.789 26.6565C108.183 27.6168 106.409 28.4341 105.764 28.5104C105.485 28.5435 105.47 28.5387 105.526 28.4335Z" fill="#B3B3B3" stroke="#B3B3B3" stroke-width="2.73425" stroke-linejoin="round"/>
<path d="M79.966 33.6595C79.8278 33.5591 79.2832 33.1655 78.756 32.7839C76.6102 31.2341 73.1371 28.6339 73.0728 28.5299C73.0397 28.4764 73.4268 27.1081 73.74 26.173C74.2185 24.744 74.7907 23.3396 75.881 20.9172C76.7562 18.9732 77.2804 17.7208 77.2804 17.5712C77.2804 17.4961 77.3206 17.5303 77.5112 17.7677C78.206 18.6349 81.0564 21.0386 84.1712 23.3841C84.3822 23.5433 84.5523 23.6833 84.5487 23.6954C84.5451 23.7074 84.4176 23.9015 84.265 24.1268C82.9155 26.1135 81.488 29.2624 80.7084 31.9703C80.5623 32.4769 80.3712 33.2388 80.3032 33.5856C80.2756 33.7274 80.2449 33.8428 80.2347 33.8422C80.2251 33.8416 80.1037 33.7593 79.966 33.6595ZM75.3202 27.7883C75.4555 27.6291 75.7416 26.9909 76.2615 25.6863C76.5332 25.0048 76.9155 24.0757 77.1103 23.6214C77.644 22.3799 77.7342 22.0764 77.736 21.5266C77.7372 21.1612 77.6933 20.9809 77.6032 20.9809C77.5274 20.9809 77.4787 21.0632 77.3206 21.4569C77.159 21.8613 76.972 22.2387 76.6727 22.7699C76.0271 23.9129 75.5156 25.2542 75.2451 26.5126C75.1219 27.0846 75.0612 27.6994 75.1141 27.8376C75.1435 27.9127 75.2325 27.8917 75.3202 27.7883Z" fill="#FFCC00" stroke="#FFCC00" stroke-width="1.36713" stroke-linejoin="round"/>
<path d="M80.8809 33.9497C80.8809 33.9431 80.9217 33.847 80.9722 33.7358C81.2343 33.1589 81.4699 32.6018 82.2676 30.6722C82.5891 29.8934 83.0815 28.7186 83.361 28.0611C84.4627 25.4711 84.8042 24.6472 85.0157 24.0655L85.0578 23.9495L85.9426 23.7482C87.9256 23.2981 89.4331 22.9015 90.4573 22.5608C90.8144 22.4418 91.13 22.3348 91.1582 22.3234C91.2297 22.2939 91.2261 22.3618 91.133 22.7771C91.0777 23.0229 90.9875 23.2825 90.812 23.6953C90.678 24.0114 90.3149 24.881 90.0059 25.6273C89.0466 27.9458 88.5657 29.0425 87.8919 30.4499C87.5613 31.1403 86.9019 32.4264 86.7919 32.594C86.7192 32.7058 85.8519 33.0339 85.0428 33.2556C84.149 33.5002 83.1403 33.6847 81.7428 33.8596C80.8688 33.969 80.8809 33.9678 80.8809 33.9497Z" fill="#FFCC00" stroke="#FFCC00" stroke-width="1.36713" stroke-linejoin="round"/>
<path d="M85.1769 22.7849C85.1523 22.744 83.5636 21.4706 82.814 20.8895C80.7836 19.3163 79.2027 18.2015 78.1364 17.591L77.7817 17.3878L78.1881 17.3698C79.7245 17.3013 80.6147 17.204 81.4393 17.0135C81.6095 16.9744 81.7513 16.945 81.7531 16.948C81.7555 16.9516 81.6395 17.3121 81.4946 17.7502C81.1971 18.6504 81.2019 18.5326 81.4484 18.9455C82.2748 20.3312 83.9759 21.425 85.6884 21.6719C86.7878 21.8312 87.648 21.6767 88.2791 21.208C88.5598 20.9995 88.8591 20.5422 89.0268 20.0662C89.0641 19.9611 89.1032 19.8649 89.114 19.8523C89.1242 19.8397 89.2889 20.0091 89.4801 20.2279C89.6706 20.4466 90.0349 20.8222 90.2885 21.0614C90.5428 21.3012 90.8241 21.5668 90.9137 21.6515L91.0771 21.8059L90.9149 21.8065C90.5091 21.8083 89.1627 22.0049 87.8601 22.2536C87.1965 22.3798 85.4438 22.747 85.2592 22.7981C85.2244 22.8077 85.1877 22.8017 85.1769 22.7849Z" fill="#FFCC00" stroke="#FFCC00" stroke-width="1.36713" stroke-linejoin="round"/>
<path d="M85.8661 21.0241C85.5223 20.9706 85.2187 20.8907 84.7493 20.7303C83.7401 20.3847 83.0044 19.9508 82.3997 19.3451C82.164 19.1089 81.7661 18.5777 81.7661 18.4996C81.7661 18.4629 81.9939 17.5471 82.0354 17.4173L82.0667 17.3193L82.2091 17.5363C82.892 18.5759 84.492 19.4713 86.2075 19.7736C86.68 19.8571 87.4193 19.8643 87.8004 19.7898C88.1052 19.7297 88.4586 19.6005 88.6221 19.4893C88.6846 19.4467 88.7417 19.4184 88.7495 19.4268C88.7766 19.4539 88.476 20.0861 88.3366 20.2958C87.9663 20.8529 87.4578 21.0716 86.5466 21.0662C86.3115 21.065 86.005 21.0458 85.8661 21.0241Z" fill="#FFCC00" stroke="#FFCC00" stroke-width="1.36713" stroke-linejoin="round"/>
<path d="M86.4587 19.2229C85.8834 19.1322 85.1892 18.92 84.6482 18.67C83.633 18.2007 82.8041 17.4646 82.5877 16.8396C82.4422 16.4183 82.6256 16.0896 83.1058 15.9105C83.5128 15.7585 84.335 15.7501 85.0046 15.8901C86.193 16.1389 87.3753 16.747 88.0467 17.4537C88.8432 18.292 88.774 18.9405 87.8604 19.1959C87.6073 19.2662 86.8271 19.2818 86.4587 19.2229Z" fill="#FFCC00" stroke="#FFCC00" stroke-width="1.36713" stroke-linejoin="round"/>
<path d="M147.965 32.0408C145.754 28.3552 144.77 26.4202 144.104 24.4527C143.9 23.8506 143.669 22.9714 143.671 22.8073C143.672 22.7731 143.843 23.1487 144.053 23.642C144.263 24.1354 144.894 25.4497 145.455 26.562C146.017 27.6749 146.922 29.4681 147.467 30.5468C148.366 32.3292 148.757 33.1729 148.705 33.224C148.695 33.2348 148.362 32.7024 147.965 32.0408Z" fill="#B3B3B3" stroke="#B3B3B3" stroke-width="1.93341" stroke-linejoin="round"/>
<path d="M148.491 33.0477C148.281 32.7202 147.424 31.2911 146.978 30.5255C145.123 27.3394 144.227 25.3857 143.728 23.4417C143.559 22.7837 143.557 22.7554 143.674 22.7728C143.746 22.7837 143.836 22.9513 144.141 23.6418C144.349 24.1117 145.423 26.2992 146.526 28.5022C148.593 32.6258 148.853 33.1799 148.754 33.243C148.662 33.3013 148.644 33.2881 148.491 33.0477Z" fill="#B3B3B3" stroke="#B3B3B3" stroke-width="1.93341" stroke-linejoin="round"/>
<path d="M143.626 22.6488C143.623 22.6234 143.619 22.5956 143.617 22.5872C143.616 22.5787 143.615 22.5727 143.617 22.5739C143.621 22.5775 143.668 22.6856 143.668 22.6905C143.668 22.6929 143.66 22.6947 143.65 22.6947H143.633L143.626 22.6488Z" fill="#B3B3B3" stroke="#B3B3B3" stroke-width="0.241676" stroke-linejoin="round"/>
<path d="M143.613 22.5651C143.613 22.5632 143.611 22.5518 143.611 22.5518C143.611 22.5518 143.616 22.5638 143.617 22.5651C143.617 22.5664 143.617 22.5664 143.616 22.5651C143.614 22.5651 143.614 22.5651 143.614 22.5651C143.613 22.5664 143.613 22.5651 143.613 22.5645V22.5651Z" fill="#B3B3B3" stroke="#B3B3B3" stroke-width="0.0151047" stroke-linejoin="round"/>
<path d="M148.82 33.4731C148.817 33.4689 148.797 33.4369 148.774 33.4012C148.751 33.3662 148.734 33.3372 148.735 33.3366C148.737 33.336 148.746 33.3318 148.756 33.3263C148.766 33.3215 148.775 33.3179 148.777 33.3191C148.777 33.3197 148.785 33.3439 148.793 33.3716C148.819 33.455 148.826 33.4792 148.826 33.4804C148.824 33.481 148.822 33.4773 148.82 33.4731Z" fill="#B3B3B3" stroke="#B3B3B3" stroke-width="0.10937" stroke-linejoin="round"/>
<path d="M16.7321 27.5142C15.9975 26.5707 14.5868 24.7721 13.5974 23.5174L11.7983 21.2368L12.2498 20.0962C12.9506 18.3253 13.7002 16.3145 13.9989 15.4047C14.1486 14.9492 14.2772 14.5664 14.2862 14.5544C14.3355 14.4829 14.6096 14.7287 14.8723 15.0802C15.6585 16.1307 17.5375 18.389 19.8427 21.0535L21.1951 22.6172L20.7966 23.2163C20.3295 23.9176 19.5235 25.4668 19.054 26.5659C18.7192 27.349 18.1494 28.9703 18.1482 29.1422C18.1482 29.1938 18.1296 29.2347 18.1073 29.2329C18.0857 29.2311 17.4666 28.4577 16.7321 27.5142Z" fill="white" stroke="white" stroke-width="2.47476" stroke-linejoin="round"/>
<path d="M14.3045 14.1135C14.1398 14.0462 12.8992 16.7312 11.001 21.3398C12.7856 23.8205 15.1425 27.065 17.7446 30.6141C20.7217 31.3803 23.9315 32.1897 27.3012 33.019C42.7756 36.829 55.3623 39.5188 55.4458 39.1672C55.5336 38.7977 43.129 35.6301 27.8782 31.9368C24.5729 31.1363 21.3228 30.3563 18.3775 29.655C15.91 26.488 13.5856 23.5332 11.7656 21.2395C13.4907 16.9482 14.4698 14.1808 14.3045 14.1135Z" fill="black"/>
<path d="M14.3046 14.1135C14.1237 14.2769 16.9344 17.7035 21.5056 22.9322C25.9176 24.4592 31.1537 26.1911 37.1056 28.1147C44.6456 30.5509 54.5833 33.6878 58.3828 34.8849C56.3463 37.422 55.2295 39.1245 55.3732 39.2297C55.5156 39.3342 56.8212 37.7484 58.8733 34.7298C55.1634 33.4054 45.5599 29.989 37.9008 27.3257C31.9411 25.2525 26.6419 23.4502 22.129 21.9834C17.5848 17.0875 14.4862 13.9506 14.3046 14.1135Z" fill="black"/>
<path d="M25.9681 19.2055C23.3456 17.6785 21.4203 15.961 21.6679 15.3697C21.915 14.7778 24.2418 15.5361 26.8643 17.0625C29.4869 18.5895 31.4121 20.3064 31.1645 20.8983C30.9174 21.4896 28.5906 20.7318 25.9681 19.2055Z" stroke="black" stroke-width="0.5" stroke-linejoin="round"/>
<path d="M38.0907 24.0463C36.0169 22.8168 34.4944 21.4334 34.6897 20.9569C34.8857 20.4804 36.7256 21.0909 38.7993 22.321C40.8731 23.5506 42.3957 24.9339 42.2003 25.4105C42.0044 25.887 40.1644 25.2764 38.0907 24.0463Z" stroke="black" stroke-width="0.5" stroke-linejoin="round"/>
<path d="M46.5942 27.4923C44.7164 26.3974 43.3375 25.1667 43.5149 24.7424C43.6922 24.3181 45.3578 24.8614 47.2356 25.9563C49.1134 27.0506 50.4917 28.2819 50.315 28.7056C50.1376 29.1299 48.472 28.5866 46.5942 27.4923Z" stroke="black" stroke-width="0.5" stroke-linejoin="round"/>
<path d="M53.1476 29.9809C51.5518 29.002 50.3586 27.954 50.4836 27.6403C50.608 27.3272 52.0026 27.8662 53.5984 28.8452C55.1943 29.8241 56.3875 30.8715 56.2631 31.1852C56.1386 31.4989 54.7441 30.9593 53.1476 29.9809Z" stroke="black" stroke-width="0.5" stroke-linejoin="round"/>
<path d="M21.7118 22.3282C21.383 22.1792 20.3161 23.8228 19.3309 25.997C18.3451 28.1705 17.812 30.0557 18.1414 30.2047C18.4701 30.3538 19.5371 28.7102 20.5223 26.5366C21.508 24.3624 22.0406 22.4773 21.7118 22.3282Z" fill="black"/>
<path d="M21.5493 15.0101C21.4784 14.983 20.9537 15.6591 20.284 16.8808C20.1452 17.1302 19.9763 17.4439 19.8525 17.7984C19.8134 17.8988 19.7755 18.037 19.7665 18.2173C19.71 18.329 19.7737 18.5111 19.9967 18.7215C20.4415 19.2088 20.8839 19.8362 21.5175 20.4527C22.2622 21.1655 23.1548 21.7376 24.1634 22.2189C24.2794 22.2742 24.3955 22.3277 24.5109 22.3794C26.5894 23.3697 28.7599 23.6576 30.2699 23.7369C30.7261 23.2111 30.9659 22.6149 31.1144 22.2405C31.436 21.264 31.4949 20.6619 31.3915 20.6276C31.2755 20.5898 31.0116 21.1216 30.5416 21.9954C30.3949 22.3115 30.2152 22.8156 30.0048 23.0584C28.5772 22.8096 26.6934 22.377 24.9923 21.392C24.8829 21.3421 24.7735 21.2905 24.6641 21.2382C23.712 20.7803 22.8976 20.2923 22.2201 19.692C21.6148 19.1643 21.0937 18.537 20.5347 18.0286C20.6525 18.1764 20.6904 18.2197 20.6333 18.2125C20.623 18.1866 20.6387 18.1241 20.6555 18.0346C20.718 17.7563 20.8394 17.4493 20.9398 17.1842C21.4321 15.8898 21.7351 15.081 21.5493 15.0101Z" fill="black"/>
<path d="M34.6069 20.65C34.5564 20.6295 34.1321 21.1872 33.5719 22.1836C33.4564 22.3855 33.314 22.6403 33.2064 22.9305C33.1721 23.0116 33.1391 23.1264 33.1271 23.2785C33.0808 23.3782 33.1313 23.5339 33.308 23.7111C33.6422 24.0987 34.1068 24.6732 34.5895 25.13C35.1918 25.693 35.8776 26.175 36.6458 26.6245C36.7444 26.6822 36.8436 26.7387 36.9415 26.7933C38.5194 27.5896 40.0389 27.9243 41.2736 27.9994C41.645 27.5565 41.9059 27.0728 42.0772 26.7375C42.4529 25.901 42.5569 25.3601 42.4457 25.3216C42.3826 25.2994 42.1061 25.7447 41.6336 26.4664C41.4797 26.729 41.2603 27.1509 41.0554 27.4099C39.9319 27.2068 38.6781 26.7843 37.3515 25.9737C37.2571 25.9196 37.1627 25.8649 37.0678 25.8096C36.3302 25.3769 35.6913 24.9527 35.1251 24.4641C34.6159 24.0296 34.1711 23.5417 33.7366 23.127C33.8321 23.252 33.8622 23.2935 33.8177 23.2947C33.8093 23.2773 33.8237 23.2286 33.8387 23.1547C33.8947 22.9281 33.9998 22.6763 34.0852 22.4594C34.5126 21.3891 34.759 20.7119 34.6069 20.65Z" fill="black"/>
<path d="M43.4802 24.4276C43.4447 24.4137 43.1003 24.853 42.6657 25.6589C42.5756 25.8241 42.468 26.0309 42.394 26.2658C42.3315 26.383 42.2937 26.5933 42.4151 26.8548C42.492 26.9966 42.5792 27.1546 42.6778 27.3109C42.8431 27.5723 43.0366 27.8349 43.2608 28.0927C43.791 28.7026 44.4804 29.2639 45.3171 29.6858C45.4139 29.7344 45.5119 29.7813 45.6098 29.8252C46.2404 30.1515 46.8355 30.4285 47.4636 30.6262C48.12 30.7963 48.7541 30.866 49.2915 30.8913C49.6323 30.5103 49.8914 30.095 50.0669 29.7999C50.4582 29.0746 50.5916 28.5963 50.4889 28.5632C50.4546 28.5518 50.1805 28.9472 49.7189 29.5848C49.5614 29.8204 49.3318 30.196 49.1172 30.4496C48.6616 30.3654 48.1572 30.238 47.6686 30.0247C47.0909 29.818 46.5391 29.5427 45.9092 29.2152C45.8202 29.175 45.7313 29.1323 45.6429 29.0878C44.8801 28.7032 44.2394 28.2075 43.7297 27.6732C43.5151 27.4479 43.3251 27.2183 43.158 26.99C43.06 26.8566 42.9633 26.7081 42.8725 26.5705C42.8443 26.6066 42.8809 26.5182 42.8821 26.392C42.9182 26.2081 42.9951 26.0098 43.0606 25.838C43.3798 25.0057 43.5571 24.4564 43.4802 24.4276Z" fill="black"/>
<path d="M50.0798 29.4468C50.0792 29.4468 49.8898 29.5922 50.007 29.9678C50.0671 30.1469 50.1843 30.3163 50.3544 30.484C50.8365 30.9708 51.2897 31.2412 52.0543 31.7736C52.3729 31.9563 52.7179 32.1426 53.0804 32.3175C53.2294 32.3902 53.3779 32.4587 53.5264 32.5236C54.2068 32.7886 54.8055 32.9749 55.4234 33.0151C55.6927 32.7087 55.9025 32.3872 56.0497 32.1438C56.3671 31.5639 56.4711 31.1703 56.3863 31.142C56.3563 31.1324 56.1345 31.4533 55.7648 31.9569C55.6362 32.148 55.4534 32.4346 55.2809 32.6456C54.7772 32.5584 54.3228 32.3397 53.735 32.0398C53.5949 31.9767 53.4536 31.9106 53.3106 31.8415C52.9656 31.6751 52.6284 31.5008 52.3134 31.3349C51.6131 30.8782 50.9964 30.5417 50.5786 30.2226C50.4061 30.0862 50.2997 29.9924 50.2264 29.8686C50.0912 29.6589 50.1218 29.4564 50.0798 29.4468Z" fill="black"/>
<path d="M109.732 45.2177C109.759 45.327 114.434 44.2231 122.059 42.7112C130.83 40.9714 139.127 39.552 152 37.4884C152.614 37.3898 155.304 36.9602 155.918 36.8616C161.231 29.7531 164.906 25.0063 168.622 19.1376C166.876 13.901 165.233 10.1896 163.724 7.34176C162.294 4.64415 161.274 3.26319 161.234 3.28843C161.177 3.32388 162.073 4.77996 163.398 7.46795C164.813 10.3374 166.344 13.9214 168.036 19.0636C164.276 24.8477 160.797 29.2315 155.531 36.218C155.804 36.1754 151.36 36.8718 151.633 36.8292C139.195 38.7912 130.231 40.3777 121.893 42.1775C114.329 43.8103 109.707 45.1203 109.732 45.2177Z" fill="black"/>
<path d="M161.234 3.2887C161.089 3.1559 159.438 4.80727 156.692 7.48085C154.007 10.0955 150.068 13.8796 145.537 17.4198C145.587 17.5526 145.638 17.686 145.689 17.8194C147.803 23.3186 150.53 28.3238 152.44 31.5911C154.416 34.9738 155.773 36.946 155.919 36.8619C156.09 36.7627 155 34.6414 153.2 31.2936C151.523 28.1717 148.764 23.1467 146.692 18.079C146.641 17.9528 146.59 17.8266 146.539 17.7004C151.126 14.272 154.843 10.6724 157.387 7.96641C159.937 5.25257 161.355 3.39868 161.234 3.2887Z" fill="black"/>
<path d="M152.69 12.0081C152.636 11.927 151.407 12.5862 149.534 14.1979C148.576 15.0218 147.323 16.044 145.842 17.0572C139.049 20.1117 133.953 21.6273 123.427 25.0641C122.791 25.284 122.151 25.5076 121.507 25.7347C115.262 27.9353 108.606 30.4791 102.361 32.6792C106.651 40.4547 109.544 45.3253 109.732 45.2177C109.921 45.1101 107.216 40.1753 102.914 32.8907C108.306 31.1966 114.83 28.9978 121.9 26.7503C122.533 26.549 123.161 26.3507 123.786 26.1548C133.954 22.8069 139.85 20.8677 146.224 17.7092C147.728 16.5963 148.963 15.4905 149.89 14.5855C151.625 12.8879 152.742 12.0868 152.69 12.0081Z" fill="black"/>
<path d="M141.979 13.9804C145.373 12.3062 147.866 10.4228 147.546 9.77382C147.225 9.12481 144.214 9.95651 140.819 11.6307C137.424 13.3049 134.932 15.1883 135.252 15.8373C135.572 16.4863 138.584 15.6546 141.979 13.9804Z" stroke="black" stroke-width="0.5" stroke-linejoin="round"/>
<path d="M128.217 19.0449C130.994 17.6009 133.105 16.1298 132.932 15.759C132.758 15.3888 130.366 16.2596 127.588 17.7036C124.811 19.1477 122.701 20.6188 122.874 20.9896C123.048 21.3598 125.44 20.4896 128.217 19.0449Z" stroke="black" stroke-width="0.5" stroke-linejoin="round"/>
<path d="M137.549 12.623C140.117 11.2877 142.058 9.90498 141.884 9.5342C141.711 9.16403 139.489 9.94644 136.921 11.2817C134.353 12.617 132.412 13.9998 132.586 14.3705C132.759 14.7407 134.981 13.9583 137.549 12.623Z" stroke="black" stroke-width="0.5" stroke-linejoin="round"/>
<path d="M127.167 17.0308C129.434 15.8511 131.169 14.6745 131.041 14.4029C130.914 14.1306 128.972 14.8656 126.705 16.0446C124.438 17.2243 122.703 18.4009 122.83 18.6731C122.958 18.9447 124.899 18.2098 127.167 17.0308Z" stroke="black" stroke-width="0.5" stroke-linejoin="round"/>
<path d="M117.824 23.4614C120.409 22.1171 122.364 20.7272 122.191 20.3564C122.018 19.9862 119.782 20.7758 117.196 22.1201C114.612 23.4644 112.657 24.8544 112.83 25.2246C113.004 25.5954 115.24 24.8057 117.824 23.4614Z" stroke="black" stroke-width="0.5" stroke-linejoin="round"/>
<path d="M118.617 20.6498C120.684 19.5754 122.271 18.5147 122.162 18.2815C122.053 18.0484 120.289 18.7304 118.222 19.8055C116.155 20.88 114.568 21.9406 114.677 22.1738C114.787 22.407 116.551 21.7249 118.617 20.6498Z" stroke="black" stroke-width="0.5" stroke-linejoin="round"/>
<path d="M109.634 26.9438C111.809 25.6644 113.418 24.3346 113.226 23.9734C113.033 23.6122 111.113 24.3574 108.936 25.6368C106.76 26.9168 105.152 28.2467 105.344 28.6072C105.537 28.9684 107.457 28.2238 109.634 26.9438Z" stroke="black" stroke-width="0.5" stroke-linejoin="round"/>
<path d="M150.502 7.2947C153.536 5.71604 155.78 3.97212 155.511 3.39883C155.243 2.82553 152.565 3.6404 149.53 5.21906C146.495 6.79712 144.253 8.54165 144.521 9.11434C144.789 9.68764 147.467 8.87277 150.502 7.2947Z" stroke="black" stroke-width="0.5" stroke-linejoin="round"/>
<path d="M147.384 9.38908C147.378 9.43174 147.422 9.49304 147.575 9.71779C147.675 9.90889 147.741 10.0585 147.871 10.3692C148.104 10.9215 148.308 11.4629 148.596 12.3265C148.602 12.5188 148.481 12.7249 148.328 12.9773C148.126 13.3174 147.858 13.6329 147.536 13.97C146.762 14.7771 145.828 15.497 144.696 16.2199C144.215 16.5258 143.71 16.8203 143.183 17.0973C142.403 17.5065 141.627 17.8485 140.857 18.1279C139.425 18.7156 138.149 19.0095 136.944 19.0317C136.249 17.8034 135.704 16.8299 135.37 16.2085C135.235 15.9597 135.14 15.7903 135.085 15.6719C135.068 15.6214 135.048 15.604 135.043 15.5859C135.004 15.5992 135.043 15.5511 135.04 15.5541C134.994 15.6581 135.08 15.3816 134.953 15.5571C134.929 15.5956 134.919 15.6497 134.921 15.7031C134.915 15.8714 134.955 16.0553 135.044 16.3455C135.309 17.1676 135.763 18.1003 136.609 19.587C137.973 19.6837 139.494 19.5017 141.163 18.9999C141.982 18.7216 142.805 18.3689 143.625 17.9392C144.179 17.6484 144.707 17.3353 145.205 17.0078C146.373 16.244 147.352 15.4339 148.145 14.5271C148.477 14.1497 148.763 13.7621 148.981 13.3372C149.154 12.9971 149.272 12.6077 149.248 12.1913C148.884 11.3181 148.561 10.6829 148.241 10.1751C148.068 9.90349 147.925 9.71479 147.776 9.56696C147.576 9.32538 147.39 9.3404 147.383 9.38908H147.384Z" fill="black"/>
<path d="M155.274 3.06636C155.283 3.09701 155.32 3.12105 155.374 3.18054C155.416 3.23583 155.434 3.27488 155.488 3.37284C155.596 3.57836 155.654 3.72739 155.786 4.06452C156.001 4.58914 156.175 5.05246 156.433 5.80243C156.075 6.53798 155.517 7.25309 154.734 7.89549C154.604 8.01088 154.47 8.12385 154.33 8.23382C153.721 8.71457 153.064 9.10879 152.443 9.4369C151.611 9.87559 150.76 10.2289 150.131 10.4873C149.081 10.9188 148.421 11.1826 148.467 11.3172C148.494 11.3954 149.2 11.3299 150.314 11.0372C150.999 10.8575 151.883 10.5757 152.796 10.1478C153.47 9.83232 154.183 9.42548 154.853 8.89666C155.006 8.77587 155.154 8.65088 155.297 8.52228C156.166 7.68277 156.761 6.73689 157.103 5.82286C156.799 4.99056 156.513 4.35778 156.217 3.85059C156.038 3.55673 155.887 3.35241 155.719 3.19376C155.636 3.11444 155.557 3.05915 155.479 3.0279C155.319 2.94918 155.273 3.06155 155.274 3.06636Z" fill="black"/>
<path d="M113.196 23.9316L113.517 24.3739" stroke="black" stroke-width="2.00315" stroke-linejoin="round"/>
<path d="M132.974 15.5788C132.859 15.6443 133.338 16.7121 134.171 18.2992C134.162 18.4999 134.066 18.7103 133.921 18.9302C133.762 19.215 133.54 19.48 133.27 19.7541C132.641 20.3905 131.868 20.9217 130.939 21.4535C130.627 21.6422 130.305 21.8267 129.973 22.0034C128.047 23.0298 126.307 23.5346 124.715 23.6956C123.705 21.9968 122.931 20.8923 122.804 20.9674C122.676 21.0431 123.286 22.2726 124.438 24.2184C126.14 24.1836 128.153 23.7695 130.303 22.766C130.675 22.5923 131.035 22.4084 131.381 22.2179C132.348 21.656 133.177 21.0395 133.848 20.2997C134.139 19.9806 134.386 19.6393 134.568 19.2649C134.725 18.9037 134.807 18.5155 134.785 18.1279C133.768 16.4784 133.088 15.5139 132.974 15.5788Z" fill="black"/>
<path d="M122.256 20.215C122.173 20.2678 122.625 21.1368 123.396 22.4312C123.375 22.5845 123.276 22.7371 123.144 22.903C122.988 23.1373 122.786 23.3525 122.546 23.5766C121.962 24.1187 121.27 24.576 120.438 25.0447C120.048 25.2749 119.642 25.4978 119.218 25.7099C117.396 26.6216 115.7 27.1167 114.253 27.3908C114.008 26.9515 113.615 26.4683 113.418 26.2051C112.889 25.5224 112.76 25.0832 112.69 25.0886C112.572 25.0982 112.614 25.645 113.108 26.4227C113.367 26.8133 113.736 27.255 114.066 27.7832C115.565 27.6107 117.449 27.1894 119.44 26.2989C119.905 26.0903 120.35 25.868 120.774 25.6348C121.629 25.1421 122.358 24.6222 122.965 24.0075C123.217 23.7533 123.437 23.4865 123.61 23.1914C123.748 22.921 123.843 22.6259 123.854 22.3158C122.938 20.9493 122.34 20.1615 122.256 20.215Z" fill="black"/>
<path d="M105.281 28.4585C105.204 28.4519 105.198 28.6748 105.314 29.0198C105.474 29.5023 105.76 30.0456 106.279 30.846C107.077 30.8172 107.898 30.6158 108.821 30.2799C109.143 30.1471 109.467 29.9987 109.793 29.834C110.311 29.572 110.795 29.289 111.24 29.0011C111.967 28.5318 112.546 28.0883 113.031 27.6075C113.22 27.4207 113.383 27.2398 113.511 27.0288C113.556 26.9579 113.597 26.8732 113.622 26.774C113.647 26.7007 113.638 26.6016 113.585 26.5006C113.215 25.967 112.955 25.6671 112.878 25.7404C112.871 25.7482 113.01 26.1094 113.294 26.6731C113.29 26.6533 113.276 26.6557 113.275 26.6791C113.262 26.717 113.231 26.7566 113.19 26.8119C113.069 26.9694 112.918 27.101 112.72 27.268C112.218 27.6881 111.662 28.0637 110.931 28.5084C110.491 28.7746 110.019 29.042 109.52 29.2944C109.206 29.453 108.896 29.5985 108.589 29.7313C107.8 30.1189 107.145 30.3749 106.465 30.4692C106.058 29.8166 105.742 29.2848 105.545 28.9212C105.379 28.5979 105.325 28.4621 105.281 28.4585Z" fill="black"/>
<path d="M106.117 30.1454C106.073 30.0793 105.18 30.5907 104.134 31.31L104.121 31.319C103.338 31.8575 102.8 32.2769 102.492 32.5894C102.464 32.5678 102.441 32.6315 102.458 32.7228C102.509 32.7601 102.536 32.7577 102.541 32.7505C102.606 32.7541 102.63 32.7889 102.65 32.7895C102.541 32.7877 102.825 32.7126 102.561 32.6447C102.532 32.6291 102.527 32.6357 102.553 32.6453C102.565 32.441 102.556 33.0137 102.577 32.6982C102.782 32.5768 103.673 31.9963 104.293 31.569L104.306 31.56C105.348 30.8413 106.166 30.2175 106.117 30.1454Z" fill="black"/>
<path d="M161.234 3.28896C161.159 3.14654 160.081 3.63631 158.789 4.27811C157.51 4.9139 156.452 5.41988 156.491 5.53526C156.542 5.6879 157.7 5.39344 159.019 4.73962C160.33 4.08941 161.292 3.39773 161.234 3.28896Z" fill="black"/>
<path d="M77.2919 17.3103C77.0563 17.6119 79.906 20.1208 83.7079 23.0156C84.1329 23.3389 84.55 23.6525 84.9552 23.9536C88.9542 23.0901 91.8262 22.2445 91.7528 21.9122C91.6789 21.5799 88.7991 22.0072 85.2112 22.8215C84.8362 22.5138 84.4485 22.2001 84.0524 21.8828C80.5805 19.1053 77.5282 17.008 77.2919 17.3103Z" fill="black"/>
<path d="M77.2915 17.31C77.1852 17.2565 76.4819 18.3256 75.4432 20.2991C74.4911 22.1085 72.9223 25.3079 72.1006 28.8588C74.1341 30.5559 76.3893 32.3473 78.8628 34.2102C79.2944 34.5353 79.7241 34.8562 80.1503 35.1717C82.8612 34.8532 85.2788 34.4644 87.522 33.4668C89.1696 30.3636 90.284 27.1828 90.8923 25.2791C91.5469 23.2317 91.8222 22.0256 91.708 21.9859C91.5781 21.9402 91.0786 23.0676 90.2816 24.9972C89.5777 26.6997 88.3088 29.8852 86.7749 32.6604C84.9037 33.4975 82.8744 33.7583 80.4533 34.0233C80.0638 33.7469 79.6718 33.4668 79.2775 33.1832C77.0042 31.5486 74.9702 30.0337 73.0389 28.5361C73.7692 25.4323 75.2737 22.2323 76.0479 20.5112C76.9303 18.5516 77.4214 17.3749 77.2915 17.31Z" fill="black"/>
<path d="M85.1706 23.1448C84.9188 23.0084 83.2766 25.373 81.8971 28.6584C81.7799 28.9366 81.6693 29.2118 81.5641 29.4829C80.4347 32.4058 80.0103 34.7747 80.2321 34.8486C80.5374 34.9502 81.4024 32.7165 82.5757 29.8879C82.6851 29.6235 82.7963 29.3573 82.9111 29.0832C84.2539 25.8844 85.4507 23.2962 85.1706 23.1448Z" fill="black"/>
<path d="M84.6464 19.0036C86.4274 19.7776 88.2848 19.7439 88.7933 18.9285C89.3024 18.1124 88.271 16.8234 86.4894 16.0494C84.7077 15.2754 82.851 15.309 82.3419 16.1251C81.8327 16.9405 82.8648 18.2296 84.6464 19.0036Z" stroke="black" stroke-width="0.5" stroke-linejoin="round"/>
<path d="M88.9606 18.0037C88.9168 18.0314 89.0189 18.2634 88.9697 18.6918C88.9408 18.9202 88.8777 19.1648 88.7605 19.4712C88.6102 19.851 88.3884 20.3702 88.0266 20.6929C88.0121 20.711 87.9622 20.7338 87.8889 20.7825C87.5325 21.018 87.06 21.0956 86.5214 21.0956C85.942 21.0878 85.3415 20.9616 84.7284 20.7428L84.7248 20.7416C83.287 20.2555 82.2658 19.4658 81.741 18.5043C82.1413 16.9503 82.4166 15.8933 82.3108 15.8578C82.2069 15.8229 81.7614 16.8415 81.2529 18.5518C81.7909 19.7098 82.9192 20.7548 84.503 21.357L84.5072 21.3582C85.1768 21.601 85.856 21.7302 86.5214 21.7229C87.1387 21.7236 87.7302 21.5781 88.2057 21.2452C88.252 21.2122 88.3253 21.1647 88.4119 21.0836C88.8573 20.6094 89.0532 20.0193 89.1572 19.5974C89.2474 19.2537 89.2762 18.9574 89.2612 18.7002C89.2359 18.166 88.9925 17.9839 88.9606 18.0037Z" fill="black"/>
<path d="M89.1383 18.5889C89.0776 18.5901 89.0529 18.798 88.9285 19.0444C88.9117 19.0666 88.8594 19.1333 88.8359 19.2787C88.8546 19.459 88.9285 19.5822 88.9832 19.6159C89.1203 19.7962 89.2495 19.9404 89.419 20.1387C89.7081 20.4764 90.0688 20.858 90.4871 21.2324C90.6188 21.3496 90.7504 21.4722 90.8808 21.6002C91.0077 21.7234 91.1279 21.8471 91.2427 21.9715C91.2379 21.9385 91.2301 21.9661 91.2499 22.0274C91.2601 22.1152 91.2481 22.2215 91.2337 22.3357C91.191 22.65 91.0954 22.9955 91.0239 23.2714C90.9187 23.6728 90.846 23.9384 90.7973 24.2178C90.7727 24.3615 90.7606 24.4708 90.7648 24.5676C90.7666 24.6163 90.7727 24.6565 90.7847 24.6896C90.7991 24.7503 90.8406 24.7611 90.8544 24.7509C90.849 24.7551 90.9001 24.704 90.9037 24.695C90.9121 24.6812 90.9391 24.6391 90.9548 24.6097C90.9788 24.567 91.0618 24.4168 91.1105 24.3218C91.2096 24.1283 91.3797 23.7798 91.5204 23.4378C91.6334 23.1656 91.7656 22.8195 91.8438 22.4415C91.872 22.3105 91.8937 22.1566 91.8871 21.9848C91.8937 21.8676 91.8516 21.7077 91.7242 21.5383C91.6028 21.4007 91.4747 21.2648 91.3389 21.132C91.1982 20.995 91.0552 20.8652 90.9115 20.7438C90.5082 20.4031 90.1241 20.0509 89.8079 19.7625C89.6198 19.59 89.4485 19.4482 89.3036 19.3202C89.2327 19.2114 89.2158 19.2733 89.2224 19.286C89.2008 19.2914 89.2327 19.2295 89.2471 19.1357C89.3 18.7667 89.1738 18.5883 89.1383 18.5889Z" fill="black"/>
<path d="M77.2915 17.3102C77.3029 17.363 78.0849 17.3835 79.2673 17.3011C79.9603 17.2543 80.862 17.1587 81.7654 16.9225C81.8718 16.8973 81.9758 16.8408 82.0647 16.7537C82.0978 16.7218 82.1285 16.6858 82.1561 16.6461C82.2336 16.5139 82.2667 16.4063 82.2889 16.3408C82.3749 16.0951 82.5853 15.8859 82.8101 15.7201C82.9808 15.5849 83.2477 15.5386 83.4977 15.5073C83.8313 15.4725 84.1667 15.4947 84.4498 15.526C84.8129 15.5674 85.0744 15.6203 85.3058 15.6774C85.4428 15.7123 85.5065 15.7291 85.5949 15.7585C85.6743 15.7946 85.777 15.8084 85.7722 15.8108C85.7999 15.8 85.8017 15.7087 85.6857 15.6125C85.6189 15.5482 85.5294 15.4857 85.4079 15.4196C85.1892 15.3 84.9012 15.1846 84.5286 15.0933C84.2292 15.0194 83.8632 14.9587 83.4647 14.9689C83.1695 14.9707 82.8113 15.0254 82.4783 15.2345C82.1753 15.4286 81.8838 15.7201 81.7179 16.1185C81.6746 16.2213 81.6584 16.294 81.6373 16.3168C81.6403 16.3162 81.641 16.3162 81.641 16.3162C81.6385 16.3174 81.6247 16.3222 81.6079 16.3288C80.7748 16.553 79.8714 16.6942 79.2096 16.8024C78.0351 16.9941 77.259 17.1623 77.2915 17.3102Z" fill="black"/>
<path d="M14.6788 16.4564C14.5538 16.4047 14.0236 17.4594 13.5626 18.8367C13.5548 18.8608 13.5463 18.8848 13.5385 18.9088C13.1009 20.2309 12.7289 21.297 12.8353 21.345C12.9513 21.3973 13.5133 20.4028 13.9671 19.0519C13.9677 19.0519 13.9911 18.9803 13.9917 18.9803C14.4468 17.621 14.784 16.4997 14.6788 16.4564Z" fill="black"/>
<path d="M77.6176 20.9899C77.4673 20.9694 77.379 21.4562 77.0532 22.1046C76.9221 22.3708 76.7382 22.6689 76.5429 23.0289C76.3403 23.4008 76.1462 23.8095 75.9652 24.253C75.1814 26.1718 74.9885 27.8291 75.1682 27.8808C75.408 27.9499 75.9496 26.3917 76.6997 24.5528C76.8765 24.119 77.0406 23.7338 77.2071 23.3564C77.376 22.976 77.5136 22.6683 77.6134 22.3149C77.8358 21.5085 77.7024 21.0013 77.6176 20.9899Z" fill="black"/>
<path d="M14.8997 14.6034L14.375 14.3203L20.7567 16.7559" stroke="black" stroke-width="0.5" stroke-linejoin="round"/>
<path d="M55.8745 32.0249L58.7333 34.6774L58.5445 34.8337" stroke="black" stroke-width="0.5" stroke-linejoin="round"/>
<path d="M6.13769 56.2789H0V38.1546H4.74918C6.24588 38.1546 7.41379 38.3583 8.2529 38.7646C9.09202 39.1624 9.73217 39.7159 10.1734 40.425C10.6146 41.1257 10.8352 41.9387 10.8352 42.8642C10.8352 44.646 9.9143 45.9217 8.07137 46.6915C9.39496 46.9421 10.4463 47.4872 11.2247 48.3261C12.0121 49.165 12.4058 50.168 12.4058 51.3356C12.4058 52.261 12.1678 53.0873 11.6917 53.8139C11.2163 54.5404 10.5154 55.1329 9.58972 55.5908C8.67246 56.0494 7.52199 56.2789 6.13769 56.2789ZM4.82732 40.464H2.5955V45.9127H4.32121C5.70551 45.9127 6.68708 45.6489 7.26713 45.1219C7.85499 44.5943 8.14952 43.911 8.14952 43.0721C8.14952 41.3336 7.04172 40.464 4.82732 40.464ZM5.02207 48.2221H2.5955V53.9695H5.15191C6.57048 53.9695 7.5304 53.8613 8.03231 53.645C8.54263 53.4203 8.94957 53.0741 9.25252 52.6072C9.56388 52.1403 9.71956 51.6385 9.71956 51.1024C9.71956 50.549 9.55485 50.043 9.22606 49.5845C8.90628 49.1259 8.44766 48.7846 7.85078 48.5593C7.2539 48.3345 6.3108 48.2221 5.02207 48.2221ZM20.7627 38.0513H22.5924L30.7022 56.2789H28.0424L25.6285 50.9077H17.9208L15.6366 56.2789H12.9762L20.7627 38.0513ZM24.5646 48.5983L21.6451 42.0337L18.933 48.5983H24.5646ZM45.314 38.1546H47.9221V48.4427C47.9221 49.8351 47.8187 50.8861 47.6108 51.5952C47.4118 52.3043 47.1612 52.8968 46.8582 53.3728C46.5643 53.8397 46.2006 54.2592 45.7684 54.6311C44.3319 55.8679 42.4547 56.4862 40.1363 56.4862C37.7746 56.4862 35.88 55.8721 34.4524 54.6438C34.0202 54.2634 33.6524 53.8397 33.3494 53.3728C33.0555 52.8968 32.809 52.3175 32.6101 51.6343C32.4195 50.951 32.3246 49.8783 32.3246 48.4168V38.1546H34.9327V48.4427C34.9327 50.1463 35.1274 51.3314 35.5169 51.9972C35.9058 52.6637 36.4985 53.1997 37.2943 53.6059C38.0902 54.0038 39.0291 54.2027 40.1104 54.2027C41.6504 54.2027 42.9049 53.8006 43.8738 52.9966C44.3841 52.5639 44.7514 52.0537 44.9768 51.4654C45.2016 50.8777 45.314 49.8699 45.314 48.4427V38.1546ZM50.5825 49.1302H57.0448V51.6601H50.5825V49.1302Z" fill="#B3B3B3"/>
<path d="M75.7305 52.0753V54.9291C73.8275 55.9669 71.6299 56.4862 69.1384 56.4862C67.1145 56.4862 65.3973 56.0799 63.9871 55.2669C62.577 54.4538 61.4607 53.3336 60.6391 51.9064C59.8174 50.4798 59.4062 48.936 59.4062 47.275C59.4062 44.6375 60.3451 42.4188 62.2223 40.6196C64.1079 38.821 66.4311 37.9214 69.1907 37.9214C71.0937 37.9214 73.2089 38.4184 75.5363 39.4135V42.2025C73.4163 40.9916 71.3444 40.3864 69.3205 40.3864C67.2438 40.3864 65.5181 41.0439 64.1428 42.3581C62.7759 43.6639 62.0925 45.3033 62.0925 47.275C62.0925 49.2641 62.7669 50.8992 64.1169 52.1792C65.4664 53.4592 67.1921 54.0992 69.2941 54.0992C71.4917 54.0992 73.6369 53.4244 75.7305 52.0753ZM91.705 38.1546H94.2998V56.2788H91.705V48.3909H81.5183V56.2788H78.9229V38.1546H81.5183V45.9908H91.705V38.1546ZM104.098 38.0512H105.927L114.038 56.2788H111.377L108.963 50.9076H101.256L98.9715 56.2788H96.3117L104.098 38.0512ZM107.899 48.5982L104.98 42.0336L102.268 48.5982H107.899ZM120.526 48.6764L118.553 47.4829C117.316 46.7299 116.434 45.9908 115.906 45.2642C115.387 44.5293 115.127 43.6856 115.127 42.7343C115.127 41.3071 115.62 40.1485 116.607 39.2579C117.601 38.3667 118.891 37.9214 120.473 37.9214C121.988 37.9214 123.376 38.345 124.639 39.193V42.1376C123.333 40.8834 121.927 40.2566 120.422 40.2566C119.574 40.2566 118.878 40.4555 118.332 40.8534C117.788 41.2428 117.515 41.7439 117.515 42.3581C117.515 42.9032 117.714 43.4134 118.112 43.8893C118.51 44.3646 119.155 44.8622 120.046 45.3808L122.031 46.5484C124.246 47.8633 125.353 49.5411 125.353 51.5825C125.353 53.035 124.864 54.2158 123.886 55.1238C122.918 56.0318 121.655 56.4862 120.097 56.4862C118.307 56.4862 116.676 55.9369 115.206 54.8384V51.5434C116.607 53.3162 118.229 54.2026 120.071 54.2026C120.885 54.2026 121.56 53.9778 122.096 53.5283C122.641 53.0698 122.913 52.4989 122.913 51.8157C122.913 50.7087 122.117 49.6619 120.526 48.6764ZM143.832 52.0753V54.9291C141.928 55.9669 139.731 56.4862 137.24 56.4862C135.215 56.4862 133.498 56.0799 132.088 55.2669C130.678 54.4538 129.562 53.3336 128.74 51.9064C127.918 50.4798 127.507 48.936 127.507 47.275C127.507 44.6375 128.446 42.4188 130.323 40.6196C132.209 38.821 134.532 37.9214 137.291 37.9214C139.194 37.9214 141.309 38.4184 143.637 39.4135V42.2025C141.517 40.9916 139.446 40.3864 137.421 40.3864C135.345 40.3864 133.619 41.0439 132.243 42.3581C130.876 43.6639 130.193 45.3033 130.193 47.275C130.193 49.2641 130.868 50.8992 132.217 52.1792C133.567 53.4592 135.293 54.0992 137.395 54.0992C139.592 54.0992 141.738 53.4244 143.832 52.0753ZM159.805 38.1546H162.401V56.2788H159.805V48.3909H149.619V56.2788H147.024V38.1546H149.619V45.9908H159.805V38.1546ZM164.867 38.1287H180.01V40.4381H173.691V56.2788H171.082V40.4381H164.867V38.1287ZM182.475 38.1546H192.753V40.464H185.071V45.9908H192.494V48.3128H185.071V53.9436H193V56.2524H182.475V38.1546Z" fill="white"/>
<path d="M77.3328 17.6919L76.3506 19.934C75.8102 21.1671 75.0835 22.8642 74.7361 23.7049C74.0833 25.2841 73.166 28.0094 73.166 28.3718C73.166 28.5526 75.0877 30.043 79.3602 33.1739L80.1825 33.7766L80.5618 32.3884C81.3732 29.4198 82.7353 26.361 84.2987 23.9951L84.5007 23.6905L83.0539 22.5823C81.2139 21.1731 79.0957 19.4004 78.1039 18.4395L77.3328 17.6919ZM77.6663 21.0073C77.6688 21.0073 77.6712 21.0079 77.6736 21.0091C77.9867 21.2032 77.6627 22.4309 76.6493 24.8905C76.0879 26.2535 75.5511 27.4878 75.4568 27.6338C74.8328 28.6019 75.0107 26.6254 75.717 24.7493C76.1781 23.5252 77.4938 21.0049 77.6663 21.0073Z" fill="#FFCC00"/>
<path d="M81.069 33.6535C82.1876 30.8502 85.1185 24.0445 85.2315 23.9862C85.3157 23.9436 86.287 23.693 87.3906 23.4292C88.4948 23.166 89.783 22.8234 90.2536 22.6678C91.0849 22.3938 91.1095 22.392 91.1095 22.6161C91.1095 23.0698 88.4527 29.2715 87.3564 31.3772L86.6826 32.671L85.6793 33.0063C84.8144 33.2954 83.3213 33.594 81.4615 33.8506C80.9807 33.9173 80.9662 33.9101 81.069 33.6535Z" fill="#FFCC00"/>
<path d="M86.6221 19.2369C84.9872 19.0477 83.1413 18.0092 82.67 17.0141C82.2985 16.2281 82.7806 15.7984 84.0303 15.8008C85.0936 15.8026 86.2705 16.1782 87.2857 16.8386C88.1309 17.3885 88.6712 18.1174 88.5829 18.5879C88.4861 19.1047 87.7059 19.3631 86.6221 19.2369Z" fill="#FFCC00"/>
<path d="M85.924 21.0306C85.3481 20.9458 84.5271 20.6838 83.9007 20.3852C83.0839 19.9952 82.3169 19.3684 81.9352 18.7801L81.7603 18.5096L81.9099 17.9135L82.059 17.3174L82.2363 17.5812C82.4587 17.9123 82.9558 18.3792 83.3988 18.6731C85.0662 19.7794 87.387 20.1772 88.5129 19.5493C88.6138 19.4934 88.7058 19.4561 88.7172 19.4675C88.7779 19.5282 88.383 20.2698 88.1456 20.5396C87.7621 20.9747 86.8773 21.1706 85.924 21.0306Z" fill="#FFCC00"/>
<path d="M84.364 22.1129C81.7253 19.9844 79.2536 18.1954 78.0202 17.5229L77.728 17.3637L78.2101 17.3625C79.1213 17.3613 80.573 17.2099 81.3802 17.0314C81.5756 16.9881 81.7379 16.9557 81.7409 16.9593C81.7445 16.9629 81.6369 17.294 81.5029 17.696C81.3682 18.0974 81.2576 18.4694 81.257 18.5229C81.2546 18.6509 81.5311 19.1196 81.8328 19.4988C82.6455 20.5198 83.9685 21.3094 85.3919 21.6237C86.014 21.7608 86.9349 21.7614 87.4097 21.6249C88.2254 21.3906 88.7039 20.9435 89.005 20.134L89.118 19.8293L89.3242 20.0667C89.4378 20.1965 89.87 20.6364 90.2847 21.0438C90.6995 21.4513 91.0114 21.7848 90.9778 21.7848C90.9441 21.7848 90.6724 21.813 90.3743 21.8473C89.3506 21.9663 87.6766 22.2643 86.1462 22.5997C85.6798 22.7024 85.2759 22.786 85.2482 22.786C85.2206 22.786 84.8227 22.4831 84.364 22.1129Z" fill="#FFCC00"/>
<path d="M81.316 33.5971C81.9538 31.9752 84.7302 25.4958 85.2561 24.4027L85.3769 24.1521L87.3798 23.6486C89.4619 23.1251 89.7901 23.0374 90.4399 22.8307C90.6544 22.7622 90.8384 22.7153 90.8486 22.7255C90.9159 22.7928 89.7041 25.7584 88.5777 28.2824C88.0199 29.5329 87.4915 30.6429 86.9884 31.6206L86.5376 32.4968L85.9985 32.677C85.0085 33.0088 84.1832 33.1999 82.642 33.4541C81.4368 33.6524 81.2878 33.6686 81.316 33.5971Z" fill="#FFCC00"/>
<path d="M50.6216 47.0703H57.0839V49.6003H50.6216V47.0703Z" fill="white"/>
<path d="M30.8271 64.4167C30.8235 64.594 37.2996 64.8146 47.7693 64.9786C58.8732 65.1523 72.0676 65.234 88.6636 65.2857C89.7455 65.2893 100.058 65.3163 101.14 65.3199C115.775 65.3566 123.766 65.4125 133.512 65.6414C141.591 65.8313 146.437 66.0477 146.461 65.8836C146.481 65.7412 141.669 65.2424 133.578 64.8296C124.688 64.3765 114.932 64.1613 101.154 64.0604C97.1226 64.0309 92.9679 64.0099 88.672 63.9961C73.515 63.9486 57.4372 64.0027 47.7784 64.067C37.3105 64.1367 30.8302 64.2382 30.8271 64.4167Z" fill="#999999"/>
<path d="M150.4 17.9297C150.3 17.9502 150.322 18.726 150.661 19.9314C151.028 21.2403 151.634 22.6279 152.568 24.391C152.568 24.391 152.603 24.4583 152.604 24.4589C153.352 25.8741 154.494 27.7659 154.977 28.5711C155.598 29.6047 155.989 30.2477 156.089 30.2027C156.188 30.1582 155.974 29.4293 155.473 28.3127C154.876 26.9847 154.273 25.9234 153.306 24.0881C153.305 24.0863 153.271 24.022 153.27 24.0202C152.282 22.1387 151.748 21.0979 151.19 19.7488C150.731 18.6364 150.514 17.9069 150.4 17.9297Z" fill="white"/>
<path d="M77.6176 20.9899C77.4673 20.9694 77.379 21.4562 77.0532 22.1046C76.9222 22.3708 76.7382 22.6689 76.5429 23.0289C76.3403 23.4008 76.1462 23.8095 75.9646 24.253C75.1814 26.1718 74.9885 27.8285 75.1682 27.8808C75.408 27.9493 75.9496 26.3917 76.6998 24.5528C76.8765 24.119 77.0406 23.7338 77.2071 23.3564C77.3754 22.976 77.5136 22.6683 77.6134 22.3149C77.8358 21.5085 77.7024 21.0013 77.6176 20.9899Z" fill="white"/>
<path d="M86.8658 16.9051C86.8093 16.9934 87.3064 17.3203 87.6748 17.9705C87.7374 18.0865 87.7975 18.2055 87.8005 18.3041C87.7975 18.3563 87.7909 18.4086 87.7722 18.4056C87.7536 18.4447 87.6604 18.4543 87.5372 18.4849C87.39 18.5072 87.23 18.5018 87.0533 18.4843C86.9854 18.4771 86.9163 18.4687 86.8466 18.4603C86.091 18.3575 85.3 18.1262 84.8143 17.9994C84.2877 17.8612 83.9529 17.7969 83.9211 17.8756C83.8916 17.9477 84.1681 18.1514 84.6652 18.3966C85.1473 18.6346 85.8999 18.9392 86.7576 19.0715C86.8333 19.0835 86.9115 19.0943 86.9926 19.1021C87.2018 19.1225 87.4158 19.1225 87.6322 19.0871C87.8221 19.0684 88.0367 18.9783 88.2146 18.792C88.3583 18.6027 88.3925 18.3936 88.3535 18.2163C88.3042 17.9886 88.1984 17.8131 88.0938 17.6845C87.5041 16.9327 86.8844 16.8744 86.8658 16.9051Z" fill="white"/>
</svg>
