<svg width="27" height="27" viewBox="0 0 27 27" fill="none" xmlns="http://www.w3.org/2000/svg">
<path d="M23.625 13.2583C23.625 13.8417 23.5125 14.3083 23.2876 14.8917C22.7253 16.175 21.4882 16.875 20.1386 16.875H6.86773C5.51815 16.875 4.3935 16.0583 3.71871 14.775C3.15639 13.4917 3.26885 11.975 4.16857 10.925L10.804 2.40833C11.4788 1.59167 12.3785 1.125 13.5032 1.125C14.5153 1.125 15.5275 1.59167 16.2023 2.40833L22.8377 10.925C23.4001 11.625 23.625 12.4417 23.625 13.2583ZM5.74308 13.8417C5.85555 14.075 6.19294 14.5417 6.86773 14.5417H20.2511C20.9258 14.5417 21.2632 14.075 21.3757 13.8417C21.6006 13.375 21.4882 12.7917 21.2632 12.4417L14.6278 3.925C14.4029 3.575 14.0655 3.45833 13.7281 3.45833C13.3907 3.45833 13.0533 3.575 12.8284 3.925L6.19294 12.4417C5.63062 12.9083 5.63062 13.4917 5.74308 13.8417Z" fill="#DFDFDF"/>
<path d="M20.25 20.25C20.25 20.925 19.8 21.375 19.125 21.375H7.875C7.2 21.375 6.75 20.925 6.75 20.25C6.75 19.575 7.2 19.125 7.875 19.125H19.125C19.8 19.125 20.25 19.575 20.25 20.25Z" fill="#DFDFDF"/>
<path d="M18 24.75C18 25.425 17.55 25.875 16.875 25.875H10.125C9.45 25.875 9 25.425 9 24.75C9 24.075 9.45 23.625 10.125 23.625H16.875C17.55 23.625 18 24.075 18 24.75Z" fill="#DFDFDF"/>
</svg>
