<svg width="16" height="20" viewBox="0 0 16 20" fill="none" xmlns="http://www.w3.org/2000/svg">
<path d="M8.00573 20H13.7098C14.6105 20 15.311 19.495 15.7112 18.7879C16.1115 17.9798 16.0115 17.0707 15.5111 16.3636L11.3081 10.404C11.208 10.202 11.208 9.89899 11.3081 9.69697L15.6112 3.63636C16.1115 2.92929 16.1115 2.0202 15.7112 1.21212C15.311 0.505051 14.6105 0 13.7098 0H8.00573C6.90494 0 5.80416 0.505051 5.20373 1.51515L0.60043 8.08081C-0.200144 9.29293 -0.200144 10.9091 0.60043 12.0202L5.20373 18.5859C5.80416 19.3939 6.90494 20 8.00573 20ZM13.7098 2.0202C13.91 2.0202 13.91 2.12121 14.01 2.22222C14.01 2.32323 14.1101 2.42424 14.01 2.52525L9.80702 8.48485C9.20659 9.39394 9.20659 10.6061 9.80702 11.5152L14.01 17.4747C14.01 17.5758 14.01 17.6768 14.01 17.7778C14.01 17.8788 13.91 17.9798 13.7098 17.9798H8.00573C7.50537 17.9798 7.10509 17.7778 6.80487 17.3737L2.20158 10.8081C1.90136 10.303 1.90136 9.69697 2.20158 9.19192L6.80487 2.62626C7.10509 2.22222 7.50537 2.0202 8.00573 2.0202H13.7098Z" fill="black"/>
</svg>
