<svg width="44" height="45" viewBox="0 0 44 45" fill="none" xmlns="http://www.w3.org/2000/svg">
<path fill-rule="evenodd" clip-rule="evenodd" d="M10.2983 9.66667C7.78432 9.66667 5.49992 11.9173 5.49992 15.1161V29.8839C5.49992 33.0827 7.78432 35.3333 10.2983 35.3333H33.8776C36.3994 35.3333 38.6358 33.09 38.4936 29.9673C38.4924 29.9395 38.4917 29.9117 38.4917 29.8839V15.1161C38.4917 11.9173 36.2073 9.66667 33.6934 9.66667H10.2983ZM1.83325 15.1161C1.83325 10.223 5.44368 6 10.2983 6H33.6934C38.548 6 42.1584 10.2229 42.1584 15.1161V29.8444C42.3612 34.7947 38.71 39 33.8776 39H10.2983C5.44368 39 1.83325 34.777 1.83325 29.8839V15.1161Z" fill="#404040"/>
<path fill-rule="evenodd" clip-rule="evenodd" d="M9.40491 14.2627C9.90413 13.3818 11.0229 13.0724 11.9038 13.5717L20.4816 18.4328C21.4746 18.9668 22.5252 18.9668 23.5182 18.4328L32.096 13.5717C32.9769 13.0724 34.0957 13.3818 34.5949 14.2627C35.0941 15.1436 34.7847 16.2624 33.9038 16.7617L25.3101 21.6319L25.2808 21.6481C23.1884 22.7839 20.8114 22.7839 18.719 21.6481L18.6897 21.6319L10.096 16.7617C9.2151 16.2624 8.90569 15.1436 9.40491 14.2627Z" fill="#404040"/>
</svg>
