<svg width="55" height="55" viewBox="0 0 55 55" fill="none" xmlns="http://www.w3.org/2000/svg">
<path d="M22.9166 34.3749L34.8103 27.4999L22.9166 20.6249V34.3749ZM49.4083 16.4312C49.7062 17.5083 49.9124 18.952 50.0499 20.7853C50.2103 22.6187 50.2791 24.1999 50.2791 25.5749L50.4166 27.4999C50.4166 32.5187 50.0499 36.2083 49.4083 38.5687C48.8353 40.6312 47.5062 41.9603 45.4437 42.5333C44.3666 42.8312 42.3958 43.0374 39.3708 43.1749C36.3916 43.3353 33.6645 43.4041 31.1437 43.4041L27.4999 43.5416C17.8978 43.5416 11.9166 43.1749 9.55617 42.5333C7.49367 41.9603 6.1645 40.6312 5.59159 38.5687C5.29367 37.4916 5.08742 36.0478 4.94992 34.2145C4.7895 32.3812 4.72075 30.7999 4.72075 29.4249L4.58325 27.4999C4.58325 22.4812 4.94992 18.7916 5.59159 16.4312C6.1645 14.3687 7.49367 13.0395 9.55617 12.4666C10.6333 12.1687 12.6041 11.9624 15.6291 11.8249C18.6083 11.6645 21.3353 11.5958 23.8562 11.5958L27.4999 11.4583C37.102 11.4583 43.0833 11.8249 45.4437 12.4666C47.5062 13.0395 48.8353 14.3687 49.4083 16.4312Z" fill="#404040"/>
</svg>
